<svg width="627" height="235" viewBox="0 0 627 235" fill="none" xmlns="http://www.w3.org/2000/svg">
<rect width="300" height="235" fill="white"/>
<rect x="300" width="327" height="235" fill="black"/>
<path d="M199.771 188.081C197.441 189.11 196.578 187.97 194.79 190.373C193.402 192.532 190.317 204.402 185.1 205.502L168.6 213.984L157.839 211.657C156.462 211.079 157.839 211.657 153.707 209.924L152.36 205.538C152.104 201.55 160.478 203.132 151.605 190.007C146.813 187.014 142.02 176.87 139.022 168.713C138.245 163.173 143.43 146.893 141.999 148.629L140.191 144.433L132.766 139.939L129.16 134.835C128.802 133.4 130.111 129.263 129.753 127.827L131.974 126.163C126.546 123.325 128.997 120.701 132.431 118.476L128.308 114.247C126.554 113.164 125.109 114.376 123.097 112.971C121.232 111.668 120.036 112.121 118.877 110.955L118.13 109.71C117.941 112.859 115.861 112.396 114.523 112.542C111.928 112.826 109.15 111.018 107.524 111.55L101.091 111.155C98.8848 111.019 98.1147 116.247 95.9087 116.111C94.3215 119.897 90.106 118.998 88.6391 118.729C85.7786 118.204 86.5367 121.459 84.0178 120.553C81.9044 117.965 71.7821 121.228 68.8482 117.807C66.8674 115.497 63.0933 114.028 61.3766 111.472C58.7718 107.593 47.8115 89.4087 47.4641 85.2549C47.293 83.2098 47.137 83.2825 47.002 80.0555C46.8971 77.5474 50.9514 74.4906 48.4254 75.1827C46.4036 75.7367 54.7592 70.5403 53.1769 63.3998C52.7769 61.5955 48.1403 61.3792 52.754 59.0824C52.3217 57.7236 53.5362 50.2803 54.205 51.3268C54.814 52.28 55.2566 49.6144 58.4625 47.094C60.4167 45.5576 56.0258 45.4449 58.3197 44.368C60.1776 43.4959 62.3936 39.8342 63.8326 37.7559C65.4915 35.3597 67.9714 32.0606 69.9395 31.4731C71.3821 30.8016 72.8703 29.8177 74.3957 30.0779C77.2894 30.5716 80.271 32.4903 83.1455 28.6713C84.3687 28.3856 85.6015 28.0514 86.7713 27.5069L89.1242 28.1534L95.5964 26.5629C97.553 26.0819 98.9623 24.4888 100.919 24.0077L105.93 23.2379L113.432 23C114.557 23.1631 114.867 26.0899 115.992 26.2532L120.755 26.1149C121.032 26.1488 125.347 26.4803 123.021 27.1101C123.93 27.2782 124.889 26.937 125.82 26.6801C126.434 26.5107 128.304 24.7172 128.859 24.8617C129.041 24.9088 128.146 26.5621 128.571 26.6245C129.323 26.7349 129.142 26.754 129.648 26.7633L128.908 30.592C129.337 31.0846 126.547 33.0325 131.374 33.4259L131.981 34.4634C132.244 35.1058 134.661 35.0527 134.924 35.6953C136.047 35.961 131.806 38.4758 137.582 38.5191C143.357 38.5625 142.651 41.7764 144.095 41.9868C148.32 42.6031 150.592 43.5626 152.552 44.0388C154.512 44.515 156.464 44.4788 156.917 42.0041C156.56 41.3946 156.516 40.4743 156.16 39.8649L154.531 39.4323L154.992 35.351C155.657 34.4405 157.5 34.7338 158.793 34.8161L162.828 37.418C163.616 37.5925 164.568 36.1609 165.357 36.3354L168.048 36.9384C172.503 39.9818 176.599 38.8544 180.874 39.8123L182.85 39.5867C184.011 40.9665 184.486 44.4811 184.69 45.0658L183.325 47.0402C182.902 47.1142 182.582 45.038 182.159 45.1122C180.983 45.9136 178.822 42.8262 177.465 42.436L181.164 46.1137C181.869 46.6852 182.215 48.8953 182.92 49.4671L184.559 52.6315L186.855 53.9354C187.492 54.514 187.277 56.2353 187.914 56.8139L190.946 59.5797C191.568 60.3431 192.265 60.8532 192.585 62.3442C192.917 63.8932 193.501 64.7726 194.668 64.895C195.247 64.9556 194.823 65.8358 195.426 66.3778C196.301 67.1647 197.758 67.7885 197.925 68.7452C198.499 72.0269 200.399 71.3739 201.061 72.4244C202.819 75.2116 203.564 76.2837 205.476 77.9476C205.779 78.2119 207.532 78.0507 207.67 78.4742C207.754 78.7338 207.576 79.1635 207.707 79.3917C207.836 79.6153 206.848 80.5204 206.967 80.7515L208.189 83.1132C208.31 83.3481 208.636 82.1209 208.728 81.4251L209.999 82.1217L211.015 81.6374C211.362 81.2595 212.175 80.8508 212.522 80.4731L214.056 78.9958C214.28 78.86 216.118 77.6813 216.342 77.5456C217.096 77.9754 220.324 78.6874 220.843 78.482C236.099 72.4446 222.371 81.4712 241.311 72.9353C241.5 75.6793 235.327 90.7175 235.177 90.0548L224.268 104.621L220.319 110.282" stroke="black" stroke-width="10" stroke-miterlimit="22.9256"/>
<path fill-rule="evenodd" clip-rule="evenodd" d="M270.356 175.614L270.597 177.578L270.706 178.918C270.214 179.841 270.157 179.379 270.018 179.2C269.492 178.519 269.139 178.806 269.217 179.517C269.185 180.287 268.441 181.561 268.906 182.157L269.095 182.399L269.071 182.968C269 183.304 268.537 183.707 268.862 183.961C268.303 184.815 268.555 185.43 268.405 186.124C268.301 186.605 267.852 187.309 267.751 187.765C267.67 188.135 267.936 188.264 267.856 188.618C267.8 188.867 267.744 189.111 267.689 189.353C267.589 189.783 267.057 190.356 266.959 190.765C266.008 192.942 265.558 194.721 265.508 196.057C265.282 196.667 264.682 197.309 264.487 197.814C264.271 198.373 264.583 198.867 264.261 199.237C263.266 200.379 262.459 201.145 262.041 201.877C261.58 202.446 261.846 203.49 261.07 203.516C260.383 203.538 259.799 204.094 259.614 204.46C259.309 204.618 259.32 204.965 258.985 205.041C258.594 205.129 258.191 205.17 257.772 205.137C257.529 205.174 256.956 205.003 256.564 205.087C256.149 205.177 255.908 205.521 255.421 205.552C254.834 205.59 254.375 205.009 253.824 204.597C253.501 204.355 253.046 204.453 252.78 203.978C252.626 203.702 252.785 203.468 252.654 203.104L252.129 202.087C252.3 201.403 252.536 200.605 252.46 199.775C252.934 198.246 252.849 197.259 252.607 196.175C252.53 195.829 251.957 195.231 252.004 194.916C251.944 193.711 252.043 193.932 254.553 192.788C255.459 192.375 255.081 190.963 255.393 190.268C255.703 189.58 256.752 189.893 255.965 188.156C255.614 187.382 256.398 186.59 256.624 185.77C256.963 184.613 254.871 181.138 256.373 180.062C256.705 179.825 256.331 179.289 257.481 179.33C258.195 179.356 258.809 178.557 259.63 178.141C260.753 177.573 262.245 178.353 263.797 177.645C264.078 177.516 264.177 175.941 264.472 175.804C264.634 175.728 264.785 175.622 264.944 175.53C264.937 176.183 265.186 175.427 265.348 175.318C265.519 175.202 265.614 175.677 265.797 175.489C266.014 175.266 266.283 175.345 266.627 174.987C266.94 174.662 267.326 173.884 267.578 173.881C267.916 173.877 268.211 174.262 268.562 174.215C269.068 174.147 269.908 172.838 269.599 173.146C268.748 173.992 271.277 171.785 270.356 175.614V175.614Z" stroke="black" stroke-width="10" stroke-miterlimit="22.9256"/>
<path fill-rule="evenodd" clip-rule="evenodd" d="M276.961 201.763L276.988 201.981L277 202.13C276.945 202.233 276.939 202.182 276.924 202.162C276.865 202.086 276.826 202.118 276.835 202.197C276.831 202.283 276.748 202.424 276.8 202.491L276.821 202.517L276.818 202.581C276.81 202.618 276.759 202.663 276.795 202.691C276.733 202.786 276.761 202.854 276.744 202.932C276.733 202.985 276.683 203.063 276.671 203.114C276.662 203.155 276.692 203.169 276.683 203.209C276.677 203.237 276.671 203.264 276.665 203.291C276.653 203.338 276.594 203.402 276.583 203.448C276.478 203.69 276.428 203.887 276.422 204.036C276.397 204.104 276.33 204.175 276.309 204.231C276.285 204.293 276.319 204.348 276.283 204.389C276.173 204.517 276.083 204.602 276.037 204.683C275.985 204.746 276.015 204.862 275.929 204.865C275.852 204.868 275.787 204.929 275.767 204.97C275.733 204.988 275.734 205.026 275.697 205.035C275.653 205.045 275.609 205.049 275.562 205.045C275.535 205.05 275.471 205.031 275.428 205.04C275.382 205.05 275.355 205.088 275.301 205.092C275.235 205.096 275.184 205.031 275.123 204.985C275.087 204.959 275.037 204.969 275.007 204.917C274.99 204.886 275.008 204.86 274.993 204.819L274.935 204.706C274.954 204.63 274.98 204.542 274.971 204.449C275.024 204.279 275.015 204.17 274.988 204.049C274.979 204.011 274.915 203.944 274.921 203.909C274.914 203.775 274.925 203.8 275.204 203.672C275.305 203.627 275.263 203.47 275.298 203.392C275.332 203.316 275.449 203.351 275.361 203.157C275.322 203.071 275.409 202.983 275.434 202.892C275.472 202.764 275.24 202.377 275.406 202.258C275.443 202.231 275.402 202.172 275.53 202.176C275.609 202.179 275.677 202.09 275.769 202.044C275.893 201.981 276.059 202.068 276.232 201.989C276.263 201.975 276.274 201.799 276.307 201.784C276.325 201.776 276.342 201.764 276.359 201.754C276.359 201.826 276.386 201.742 276.404 201.73C276.423 201.717 276.434 201.77 276.454 201.749C276.478 201.724 276.508 201.733 276.547 201.693C276.581 201.657 276.624 201.571 276.652 201.57C276.69 201.57 276.723 201.613 276.762 201.608C276.818 201.6 276.911 201.455 276.877 201.489C276.782 201.583 277.064 201.337 276.961 201.763V201.763Z" stroke="black" stroke-width="10" stroke-miterlimit="22.9256"/>
<path fill-rule="evenodd" clip-rule="evenodd" d="M254.314 171.639L254.353 171.953L254.37 172.167C254.292 172.314 254.283 172.24 254.261 172.212C254.176 172.103 254.12 172.149 254.133 172.262C254.127 172.385 254.009 172.589 254.083 172.684L254.113 172.723L254.109 172.814C254.098 172.867 254.024 172.932 254.076 172.972C253.987 173.108 254.027 173.207 254.003 173.318C253.986 173.395 253.914 173.507 253.898 173.58C253.885 173.639 253.928 173.659 253.915 173.716C253.906 173.756 253.897 173.795 253.888 173.833C253.872 173.902 253.788 173.994 253.772 174.059C253.62 174.407 253.548 174.691 253.54 174.904C253.504 175.002 253.408 175.104 253.377 175.185C253.343 175.274 253.392 175.353 253.341 175.412C253.182 175.595 253.053 175.717 252.986 175.834C252.913 175.925 252.955 176.091 252.831 176.095C252.722 176.099 252.628 176.188 252.599 176.246C252.55 176.272 252.552 176.327 252.498 176.339C252.436 176.353 252.371 176.36 252.304 176.354C252.266 176.36 252.174 176.333 252.111 176.347C252.045 176.361 252.007 176.416 251.929 176.421C251.835 176.427 251.762 176.334 251.674 176.268C251.622 176.23 251.55 176.245 251.507 176.169C251.483 176.125 251.508 176.088 251.487 176.03L251.403 175.867C251.43 175.758 251.468 175.631 251.456 175.498C251.532 175.254 251.518 175.096 251.479 174.923C251.467 174.868 251.376 174.772 251.383 174.722C251.373 174.529 251.389 174.565 251.79 174.382C251.935 174.316 251.875 174.09 251.924 173.98C251.974 173.87 252.142 173.92 252.016 173.642C251.96 173.519 252.085 173.392 252.121 173.261C252.175 173.076 251.841 172.521 252.081 172.349C252.134 172.311 252.074 172.226 252.258 172.232C252.372 172.237 252.47 172.109 252.601 172.042C252.781 171.952 253.019 172.076 253.267 171.963C253.312 171.943 253.327 171.691 253.375 171.669C253.4 171.657 253.425 171.64 253.45 171.625C253.449 171.73 253.489 171.609 253.515 171.592C253.542 171.573 253.557 171.649 253.586 171.619C253.621 171.583 253.664 171.596 253.719 171.539C253.769 171.487 253.83 171.363 253.871 171.362C253.925 171.361 253.972 171.423 254.028 171.415C254.109 171.404 254.243 171.196 254.194 171.245C254.058 171.38 254.462 171.027 254.314 171.639V171.639Z" stroke="black" stroke-width="10" stroke-miterlimit="22.9256"/>
<path d="M205.743 116.565C227.489 116.565 245.118 113.82 245.118 110.434C245.118 107.049 227.489 104.304 205.743 104.304C183.996 104.304 166.368 107.049 166.368 110.434C166.368 113.82 183.996 116.565 205.743 116.565Z" fill="black"/>
<path d="M205.505 145.035C227.251 145.035 244.88 142.29 244.88 138.904C244.88 135.519 227.251 132.774 205.505 132.774C183.758 132.774 166.129 135.519 166.129 138.904C166.129 142.29 183.758 145.035 205.505 145.035Z" fill="black"/>
<path d="M205.752 130.334C227.498 130.334 245.127 127.589 245.127 124.204C245.127 120.818 227.498 118.073 205.752 118.073C184.005 118.073 166.376 120.818 166.376 124.204C166.376 127.589 184.005 130.334 205.752 130.334Z" fill="black"/>
<path d="M205.695 159.66C227.441 159.66 245.07 156.915 245.07 153.529C245.07 150.144 227.441 147.399 205.695 147.399C183.948 147.399 166.32 150.144 166.32 153.529C166.32 156.915 183.948 159.66 205.695 159.66Z" fill="black"/>
<path d="M205.865 187.408C227.611 187.408 245.24 184.663 245.24 181.278C245.24 177.892 227.611 175.147 205.865 175.147C184.118 175.147 166.49 177.892 166.49 181.278C166.49 184.663 184.118 187.408 205.865 187.408Z" fill="black"/>
<path d="M205.703 173.429C227.45 173.429 245.079 170.685 245.079 167.299C245.079 163.913 227.45 161.168 205.703 161.168C183.957 161.168 166.328 163.913 166.328 167.299C166.328 170.685 183.957 173.429 205.703 173.429Z" fill="black"/>
<path d="M205.853 201.099C227.6 201.099 245.229 198.354 245.229 194.968C245.229 191.583 227.6 188.838 205.853 188.838C184.107 188.838 166.478 191.583 166.478 194.968C166.478 198.354 184.107 201.099 205.853 201.099Z" fill="black"/>
<path d="M360.506 119.867H342.635L338.621 131H332.82L349.109 88.3438H354.031L370.35 131H364.578L360.506 119.867ZM344.334 115.238H358.836L351.57 95.2871L344.334 115.238ZM380.369 99.3008L380.545 103.285C382.967 100.238 386.131 98.7148 390.037 98.7148C396.736 98.7148 400.115 102.494 400.174 110.053V131H394.754V110.023C394.734 107.738 394.207 106.049 393.172 104.955C392.156 103.861 390.564 103.314 388.396 103.314C386.639 103.314 385.096 103.783 383.768 104.721C382.439 105.658 381.404 106.889 380.662 108.412V131H375.242V99.3008H380.369ZM427.918 131C427.605 130.375 427.352 129.262 427.156 127.66C424.637 130.277 421.629 131.586 418.133 131.586C415.008 131.586 412.439 130.707 410.428 128.949C408.436 127.172 407.439 124.926 407.439 122.211C407.439 118.91 408.689 116.352 411.189 114.535C413.709 112.699 417.244 111.781 421.795 111.781H427.068V109.291C427.068 107.396 426.502 105.893 425.369 104.779C424.236 103.646 422.566 103.08 420.359 103.08C418.426 103.08 416.805 103.568 415.496 104.545C414.188 105.521 413.533 106.703 413.533 108.09H408.084C408.084 106.508 408.641 104.984 409.754 103.52C410.887 102.035 412.41 100.863 414.324 100.004C416.258 99.1445 418.377 98.7148 420.682 98.7148C424.334 98.7148 427.195 99.6328 429.266 101.469C431.336 103.285 432.41 105.795 432.488 108.998V123.588C432.488 126.498 432.859 128.812 433.602 130.531V131H427.918ZM418.924 126.869C420.623 126.869 422.234 126.43 423.758 125.551C425.281 124.672 426.385 123.529 427.068 122.123V115.619H422.82C416.18 115.619 412.859 117.562 412.859 121.449C412.859 123.148 413.426 124.477 414.559 125.434C415.691 126.391 417.146 126.869 418.924 126.869ZM446.873 131H441.453V86H446.873V131ZM465.945 123.061L473.328 99.3008H479.129L466.385 135.893C464.412 141.166 461.277 143.803 456.98 143.803L455.955 143.715L453.934 143.334V138.939L455.398 139.057C457.234 139.057 458.66 138.686 459.676 137.943C460.711 137.201 461.561 135.844 462.225 133.871L463.426 130.648L452.117 99.3008H458.035L465.945 123.061ZM502.449 122.592C502.449 121.127 501.893 119.994 500.779 119.193C499.686 118.373 497.762 117.67 495.008 117.084C492.273 116.498 490.096 115.795 488.475 114.975C486.873 114.154 485.682 113.178 484.9 112.045C484.139 110.912 483.758 109.564 483.758 108.002C483.758 105.404 484.852 103.207 487.039 101.41C489.246 99.6133 492.059 98.7148 495.477 98.7148C499.07 98.7148 501.98 99.6426 504.207 101.498C506.453 103.354 507.576 105.727 507.576 108.617H502.127C502.127 107.133 501.492 105.854 500.223 104.779C498.973 103.705 497.391 103.168 495.477 103.168C493.504 103.168 491.961 103.598 490.848 104.457C489.734 105.316 489.178 106.439 489.178 107.826C489.178 109.135 489.695 110.121 490.73 110.785C491.766 111.449 493.631 112.084 496.326 112.689C499.041 113.295 501.238 114.018 502.918 114.857C504.598 115.697 505.838 116.713 506.639 117.904C507.459 119.076 507.869 120.512 507.869 122.211C507.869 125.043 506.736 127.318 504.471 129.037C502.205 130.736 499.266 131.586 495.652 131.586C493.113 131.586 490.867 131.137 488.914 130.238C486.961 129.34 485.428 128.09 484.314 126.488C483.221 124.867 482.674 123.119 482.674 121.244H488.094C488.191 123.061 488.914 124.506 490.262 125.58C491.629 126.635 493.426 127.162 495.652 127.162C497.703 127.162 499.344 126.752 500.574 125.932C501.824 125.092 502.449 123.979 502.449 122.592ZM520.818 131H515.398V99.3008H520.818V131ZM514.959 90.8926C514.959 90.0137 515.223 89.2715 515.75 88.666C516.297 88.0605 517.098 87.7578 518.152 87.7578C519.207 87.7578 520.008 88.0605 520.555 88.666C521.102 89.2715 521.375 90.0137 521.375 90.8926C521.375 91.7715 521.102 92.5039 520.555 93.0898C520.008 93.6758 519.207 93.9688 518.152 93.9688C517.098 93.9688 516.297 93.6758 515.75 93.0898C515.223 92.5039 514.959 91.7715 514.959 90.8926ZM547.977 122.592C547.977 121.127 547.42 119.994 546.307 119.193C545.213 118.373 543.289 117.67 540.535 117.084C537.801 116.498 535.623 115.795 534.002 114.975C532.4 114.154 531.209 113.178 530.428 112.045C529.666 110.912 529.285 109.564 529.285 108.002C529.285 105.404 530.379 103.207 532.566 101.41C534.773 99.6133 537.586 98.7148 541.004 98.7148C544.598 98.7148 547.508 99.6426 549.734 101.498C551.98 103.354 553.104 105.727 553.104 108.617H547.654C547.654 107.133 547.02 105.854 545.75 104.779C544.5 103.705 542.918 103.168 541.004 103.168C539.031 103.168 537.488 103.598 536.375 104.457C535.262 105.316 534.705 106.439 534.705 107.826C534.705 109.135 535.223 110.121 536.258 110.785C537.293 111.449 539.158 112.084 541.854 112.689C544.568 113.295 546.766 114.018 548.445 114.857C550.125 115.697 551.365 116.713 552.166 117.904C552.986 119.076 553.396 120.512 553.396 122.211C553.396 125.043 552.264 127.318 549.998 129.037C547.732 130.736 544.793 131.586 541.18 131.586C538.641 131.586 536.395 131.137 534.441 130.238C532.488 129.34 530.955 128.09 529.842 126.488C528.748 124.867 528.201 123.119 528.201 121.244H533.621C533.719 123.061 534.441 124.506 535.789 125.58C537.156 126.635 538.953 127.162 541.18 127.162C543.23 127.162 544.871 126.752 546.102 125.932C547.352 125.092 547.977 123.979 547.977 122.592Z" fill="white"/>
</svg>
