<?xml version="1.0" encoding="UTF-8"?>
<!DOCTYPE svg PUBLIC "-//W3C//DTD SVG 1.1//EN" "http://www.w3.org/Graphics/SVG/1.1/DTD/svg11.dtd">
<!-- Creator: CorelDRAW 2019 (64-Bit) -->
<svg xmlns="http://www.w3.org/2000/svg" xml:space="preserve" width="215.9mm" height="279.4mm" version="1.1" style="shape-rendering:geometricPrecision; text-rendering:geometricPrecision; image-rendering:optimizeQuality; fill-rule:evenodd; clip-rule:evenodd"
viewBox="0 0 21590 27940"
 xmlns:xlink="http://www.w3.org/1999/xlink"
 xmlns:xodm="http://www.corel.com/coreldraw/odm/2003">
 <defs>
  <style type="text/css">
   <![CDATA[
    .str1 {stroke:#373435;stroke-width:141.11;stroke-miterlimit:22.9256}
    .str2 {stroke:#373435;stroke-width:105.83;stroke-miterlimit:22.9256}
    .str0 {stroke:#373435;stroke-width:352.78;stroke-miterlimit:22.9256}
    .fil0 {fill:none}
    .fil1 {fill:#FEFEFE}
    .fil2 {fill:#FFCC29}
   ]]>
  </style>
 </defs>
 <g id="Layer_x0020_1">
  <metadata id="CorelCorpID_0Corel-Layer"/>
  <g id="_2737368209200">
   <path class="fil0 str0" d="M5468.47 3173.77c-181.88,50.56 -312.85,217.95 -494.72,268.49l-601.51 167.12 -218.69 -67.93c-108.72,57.2 -223.29,92.32 -336.96,122.33 -267.19,401.26 -544.28,199.66 -813.24,147.8 -141.75,-27.34 -280.06,76.03 -414.14,146.58 -182.92,61.72 -413.39,408.38 -567.58,660.12 -133.75,218.37 -339.7,603.1 -512.38,694.73 -213.18,113.14 194.9,124.99 13.28,286.42 -297.96,264.8 -339.09,544.89 -395.7,444.72 -62.14,-109.95 -175.02,672.09 -134.85,814.86 -428.8,241.33 2.13,264.04 39.3,453.63 147.07,750.24 -629.51,1296.21 -441.6,1238 234.76,-72.72 -142.04,248.45 -132.29,511.97 12.55,339.06 27.05,331.43 42.96,546.3 32.29,436.42 1050.94,2347.02 1293.02,2754.55 159.55,268.59 510.31,422.89 694.42,665.61 272.67,359.43 1213.43,16.57 1409.87,288.54 234.09,95.22 163.62,-246.78 429.48,-191.67 136.34,28.27 528.12,122.72 675.66,-275 205.02,14.24 276.58,-535.03 481.6,-520.8l597.93 41.49c151.07,-55.84 409.3,134.07 650.45,104.26 124.38,-15.36 317.72,33.31 335.28,-297.51l69.43 130.81c107.68,122.46 218.87,74.85 392.19,211.75 186.96,147.67 321.27,20.3 484.3,134.11l383.16 444.31 0 0c-319.08,233.81 -546.96,509.51 -42.41,807.66l-206.43 174.9c33.25,150.83 -88.36,585.48 -55.11,736.31l335.1 536.24 690.14 472.16 168 440.88 0 0c132.98,-182.42 -348.9,1528.04 -276.66,2110.18 278.6,857.06 724.05,1922.84 1169.48,2237.3 824.57,1378.99 46.38,1212.77 70.14,1631.78l125.22 460.85c384,182.06 256,121.37 384,182.06l1000.14 244.54 1533.48 -891.22c484.88,-115.59 771.64,-1362.67 900.6,-1589.52 242.75,-368.93 302.15,56.86 871.12,-594.55l-154.66 -1538.74 448.19 -384.63 211.41 -2049.54 336.24 -1241.09 -23.02 -682.68 208.34 -189.06c-62.17,-150.37 -128.6,-234.38 -190.81,-384.73l-102.83 -240.94 276.29 -676.18c116.77,-140.75 375.65,-292.11 492.44,-432.86l367.02 -594.78 1013.84 -1530.48c13.94,69.62 587.65,-1510.42 570.11,-1798.71 -1760.32,896.84 -484.45,-51.56 -1902.31,582.79 -48.24,21.57 -348.24,-53.25 -418.36,-98.41 -20.76,14.27 -191.64,138.12 -212.4,152.39l-142.61 155.2c-32.25,39.69 -107.77,82.65 -140.01,122.34l-94.47 50.88 -118.16 -73.2c-8.54,73.13 -38.78,202.06 -50.06,177.38l-113.53 -248.14c-11.09,-24.28 80.71,-119.38 68.74,-142.87 -12.23,-23.98 4.41,-69.13 -3.46,-96.41 -12.84,-44.47 -175.7,-27.55 -203.93,-55.32 -177.68,-174.82 -246.91,-287.47 -410.26,-580.31 -61.56,-110.36 -238.13,-41.76 -291.51,-386.57 -15.54,-100.51 -150.88,-166.06 -232.24,-248.73 -56.04,-56.96 -16.64,-149.44 -70.41,-155.8 -108.49,-12.85 -162.75,-105.26 -193.62,-268.01 -29.72,-156.66 -94.57,-210.25 -152.29,-290.47l-281.86 -290.58c-59.23,-60.8 -39.18,-241.65 -98.4,-302.45l-213.37 -137 -152.41 -332.47c-65.51,-60.06 -97.66,-292.28 -163.18,-352.34l-343.72 -386.41c126.06,41.01 326.91,365.39 436.26,281.18 39.31,-7.78 69.05,210.36 108.36,202.59l126.85 -207.44c-19.01,-61.45 -63.09,-430.72 -171.04,-575.69l-183.63 23.69c-397.35,-100.64 -777.99,17.83 -1192.04,-301.95l-250.13 -63.35c-73.27,-18.33 -161.79,132.07 -235.07,113.75l-374.93 -273.37c-120.25,-8.66 -291.46,-39.48 -353.32,56.21l-42.84 428.81 151.38 45.44c33.11,64.04 37.25,160.72 70.37,224.75 -42.11,260.02 -223.52,263.82 -405.66,213.79 -182.14,-50.03 -393.36,-150.84 -785.98,-215.59 -134.21,-22.13 -68.6,-359.8 -605.37,-364.35 -536.8,-4.55 -142.63,-268.77 -247.05,-296.69 -24.42,-67.5 -249.05,-61.93 -273.47,-129.43l-56.43 -109.02c-448.57,-41.33 -189.34,-245.99 -229.16,-297.74l68.74 -402.28c-46.97,-0.98 -30.17,-2.98 -100.07,-14.58 -39.49,-6.57 43.66,-180.26 26.77,-185.22 -51.61,-15.18 -225.38,173.26 -282.42,191.06 -86.55,27 -175.74,62.84 -260.2,45.17 216.19,-66.15 -184.88,-100.99 -210.62,-104.54l-442.64 14.52c-104.59,-17.17 -133.37,-324.67 -237.95,-341.82l-697.2 25 -465.72 80.87z"/>
   <path class="fil0 str1" d="M20666.07 18907.29l23.73 218.3 10.74 148.93c-48.39,102.64 -54.01,51.24 -67.65,31.32 -51.8,-75.69 -86.46,-43.7 -78.75,35.31 -3.23,85.6 -76.37,227.23 -30.59,293.5l18.53 26.84 -2.38 63.32c-6.93,37.35 -52.44,82.07 -20.49,110.3 -54.99,94.95 -30.26,163.28 -44.97,240.5 -10.2,53.5 -54.39,131.68 -64.28,182.45 -8.02,41.14 18.22,55.38 10.34,94.78 -5.52,27.62 -11.01,54.85 -16.49,81.65 -9.79,47.9 -62.07,111.58 -71.79,156.96 -93.5,242.05 -137.7,439.82 -142.62,588.38 -22.23,67.8 -81.27,139.18 -100.4,195.21 -21.22,62.15 9.43,117.06 -22.28,158.22 -97.81,126.94 -177.11,212.12 -218.21,293.49 -45.34,63.28 -19.23,179.34 -95.51,182.15 -67.58,2.5 -125,64.27 -143.23,105.04 -29.99,17.5 -28.83,56.07 -61.79,64.5 -38.44,9.83 -78.07,14.35 -119.29,10.68 -23.91,4.13 -80.26,-14.86 -118.81,-5.48 -40.8,9.92 -64.48,48.22 -112.39,51.67 -57.73,4.16 -102.84,-60.44 -157.02,-106.23 -31.75,-26.84 -76.56,-15.93 -102.63,-68.77 -15.16,-30.73 0.5,-56.73 -12.47,-97.19l-51.61 -112.99c16.84,-76.11 40.07,-164.72 32.59,-257.06 46.63,-169.94 38.27,-279.62 14.43,-400.17 -7.6,-38.5 -63.95,-104.95 -59.31,-139.95 -5.89,-133.93 3.86,-109.44 250.68,-236.6 89.12,-45.92 51.89,-202.82 82.59,-280.04 30.45,-76.56 133.62,-41.77 56.25,-234.82 -34.48,-86.04 42.58,-174.08 64.76,-265.21 33.35,-128.64 -172.3,-514.99 -24.63,-634.52 32.6,-26.4 -4.16,-85.97 108.98,-81.38 70.22,2.85 130.51,-86.02 211.3,-132.2 110.41,-63.13 257.13,23.54 409.72,-55.18 27.61,-14.25 37.35,-189.44 66.34,-204.66 15.94,-8.39 30.77,-20.15 46.51,-30.4 -0.7,72.62 23.74,-11.44 39.65,-23.63 16.81,-12.87 26.14,39.94 44.15,19.06 21.32,-24.74 47.85,-16.05 81.67,-55.8 30.76,-36.17 68.71,-122.61 93.53,-122.93 33.2,-0.45 62.17,42.3 96.72,37.07 49.72,-7.52 132.39,-153 101.94,-118.78 -83.66,94.04 165.07,-151.36 74.44,274.36z"/>
   <path class="fil0 str2" d="M19775.82 17553.48l3.79 34.87 1.71 23.78c-7.73,16.4 -8.62,8.19 -10.8,5.01 -8.28,-12.09 -13.81,-6.98 -12.58,5.64 -0.52,13.67 -12.2,36.29 -4.89,46.88l2.96 4.28 -0.38 10.12c-1.1,5.96 -8.37,13.11 -3.27,17.62 -8.78,15.16 -4.83,26.08 -7.18,38.41 -1.63,8.55 -8.69,21.03 -10.27,29.14 -1.28,6.58 2.91,8.85 1.65,15.14 -0.88,4.42 -1.76,8.76 -2.63,13.04 -1.57,7.66 -9.92,17.83 -11.47,25.08 -14.94,38.66 -22,70.25 -22.78,93.98 -3.55,10.83 -12.98,22.23 -16.04,31.18 -3.39,9.92 1.51,18.7 -3.56,25.27 -15.62,20.28 -28.29,33.88 -34.85,46.88 -7.24,10.11 -3.07,28.64 -15.26,29.09 -10.79,0.4 -19.96,10.27 -22.88,16.78 -4.78,2.8 -4.6,8.96 -9.86,10.3 -6.14,1.57 -12.47,2.3 -19.06,1.71 -3.82,0.66 -12.82,-2.37 -18.98,-0.88 -6.51,1.59 -10.29,7.71 -17.95,8.26 -9.22,0.66 -16.42,-9.66 -25.08,-16.97 -5.07,-4.29 -12.23,-2.55 -16.39,-10.99 -2.42,-4.9 0.08,-9.06 -1.99,-15.52l-8.25 -18.05c2.69,-12.15 6.4,-26.31 5.21,-41.06 7.45,-27.14 6.11,-44.66 2.3,-63.92 -1.21,-6.14 -10.21,-16.76 -9.47,-22.35 -0.94,-21.39 0.62,-17.48 40.04,-37.79 14.24,-7.34 8.29,-32.4 13.19,-44.73 4.87,-12.23 21.35,-6.67 8.99,-37.51 -5.51,-13.74 6.8,-27.8 10.34,-42.36 5.33,-20.55 -27.52,-82.26 -3.93,-101.35 5.2,-4.22 -0.67,-13.73 17.41,-13 11.21,0.46 20.84,-13.74 33.75,-21.12 17.63,-10.08 41.07,3.76 65.44,-8.81 4.41,-2.28 5.97,-30.26 10.6,-32.69 2.54,-1.34 4.91,-3.22 7.42,-4.86 -0.11,11.6 3.8,-1.82 6.34,-3.77 2.68,-2.06 4.17,6.38 7.05,3.04 3.41,-3.95 7.64,-2.56 13.04,-8.91 4.92,-5.78 10.98,-19.58 14.94,-19.63 5.31,-0.08 9.94,6.75 15.45,5.92 7.95,-1.2 21.15,-24.44 16.29,-18.97 -13.37,15.02 26.36,-24.18 11.89,43.82z"/>
   <path class="fil0 str2" d="M21377.76 21546.86l2.63 24.27 1.2 16.56c-5.38,11.41 -6.01,5.7 -7.52,3.48 -5.76,-8.42 -9.62,-4.86 -8.76,3.93 -0.36,9.51 -8.49,25.26 -3.4,32.63l2.06 2.98 -0.26 7.04c-0.77,4.15 -5.83,9.13 -2.28,12.26 -6.12,10.56 -3.37,18.16 -5,26.74 -1.14,5.95 -6.05,14.64 -7.15,20.29 -0.89,4.57 2.03,6.16 1.15,10.54 -0.61,3.07 -1.22,6.1 -1.83,9.07 -1.09,5.33 -6.9,12.41 -7.98,17.45 -10.4,26.92 -15.31,48.9 -15.86,65.42 -2.47,7.54 -9.04,15.48 -11.16,21.71 -2.36,6.91 1.05,13.01 -2.48,17.59 -10.88,14.11 -19.69,23.58 -24.26,32.63 -5.04,7.03 -2.14,19.94 -10.62,20.25 -7.51,0.28 -13.9,7.14 -15.93,11.68 -3.33,1.94 -3.2,6.23 -6.86,7.17 -4.28,1.09 -8.68,1.59 -13.27,1.19 -2.66,0.45 -8.92,-1.66 -13.21,-0.61 -4.53,1.1 -7.17,5.36 -12.49,5.74 -6.42,0.46 -11.44,-6.72 -17.46,-11.81 -3.53,-2.98 -8.51,-1.77 -11.41,-7.65 -1.69,-3.41 0.05,-6.3 -1.39,-10.8l-5.73 -12.56c1.87,-8.47 4.45,-18.32 3.62,-28.58 5.18,-18.9 4.25,-31.09 1.6,-44.5 -0.84,-4.28 -7.11,-11.66 -6.59,-15.55 -0.66,-14.9 0.43,-12.17 27.87,-26.31 9.91,-5.11 5.77,-22.55 9.18,-31.14 3.39,-8.51 14.86,-4.64 6.26,-26.1 -3.84,-9.57 4.73,-19.36 7.2,-29.49 3.7,-14.3 -19.16,-57.26 -2.74,-70.55 3.62,-2.93 -0.46,-9.55 12.11,-9.04 7.81,0.31 14.51,-9.57 23.5,-14.7 12.27,-7.02 28.58,2.62 45.55,-6.14 3.07,-1.58 4.15,-21.06 7.38,-22.75 1.77,-0.93 3.42,-2.24 5.17,-3.38 -0.08,8.07 2.64,-1.27 4.4,-2.63 1.87,-1.43 2.91,4.44 4.91,2.12 2.37,-2.75 5.32,-1.78 9.08,-6.2 3.42,-4.02 7.64,-13.63 10.4,-13.67 3.69,-0.05 6.91,4.7 10.76,4.12 5.52,-0.83 14.72,-17.01 11.33,-13.2 -9.3,10.45 18.35,-16.83 8.28,30.5z"/>
   <rect class="fil1" x="11975.28" y="9802.15" width="7023.22" height="11036.49"/>
   <ellipse class="fil2" cx="14999.68" cy="10749.75" rx="3871.87" ry="681.5"/>
   <ellipse class="fil2" cx="14976.25" cy="13914.59" rx="3871.87" ry="681.5"/>
   <ellipse class="fil2" cx="15000.52" cy="12280.4" rx="3871.87" ry="681.5"/>
   <ellipse class="fil2" cx="14994.96" cy="15540.36" rx="3871.87" ry="681.5"/>
   <ellipse class="fil2" cx="15011.66" cy="18624.93" rx="3871.87" ry="681.5"/>
   <ellipse class="fil2" cx="14995.79" cy="17071.01" rx="3871.87" ry="681.5"/>
   <ellipse class="fil2" cx="15010.5" cy="20146.86" rx="3871.87" ry="681.5"/>
  </g>
 </g>
</svg>
