<svg width="959" height="91" viewBox="0 0 959 91" fill="none" xmlns="http://www.w3.org/2000/svg">
<rect width="959" height="91" fill="white"/>
<g filter="url(#filter0_d)">
<path d="M378.61 47.9507C378.39 49.8306 377.694 51.2833 376.522 52.3087C375.358 53.3259 373.808 53.8345 371.871 53.8345C369.772 53.8345 368.087 53.0818 366.818 51.5762C365.556 50.0707 364.925 48.0565 364.925 45.5338V43.8248C364.925 42.1728 365.218 40.7201 365.804 39.4669C366.398 38.2136 367.237 37.2533 368.319 36.586C369.401 35.9105 370.655 35.5728 372.079 35.5728C373.967 35.5728 375.48 36.1018 376.62 37.1597C377.759 38.2095 378.422 39.6662 378.61 41.5298H376.254C376.05 40.1138 375.607 39.0884 374.923 38.4537C374.248 37.8189 373.299 37.5015 372.079 37.5015C370.581 37.5015 369.405 38.0549 368.551 39.1617C367.705 40.2685 367.281 41.8432 367.281 43.8858V45.607C367.281 47.5357 367.684 49.0697 368.49 50.209C369.296 51.3484 370.423 51.918 371.871 51.918C373.173 51.918 374.17 51.6251 374.862 51.0391C375.562 50.445 376.026 49.4156 376.254 47.9507H378.61ZM395.492 45.2774C395.492 47.0189 395.199 48.5408 394.613 49.8428C394.027 51.1368 393.197 52.1256 392.123 52.8091C391.049 53.4927 389.795 53.8345 388.363 53.8345C386.963 53.8345 385.722 53.4927 384.64 52.8091C383.557 52.1174 382.715 51.1368 382.113 49.8673C381.519 48.5896 381.214 47.1125 381.197 45.4361V44.1544C381.197 42.4454 381.494 40.9358 382.089 39.6256C382.683 38.3153 383.521 37.3144 384.603 36.6226C385.694 35.9228 386.939 35.5728 388.339 35.5728C389.763 35.5728 391.016 35.9187 392.098 36.6104C393.189 37.294 394.027 38.2909 394.613 39.6011C395.199 40.9032 395.492 42.421 395.492 44.1544V45.2774ZM393.16 44.1299C393.16 42.0222 392.737 40.4068 391.891 39.2838C391.044 38.1526 389.86 37.587 388.339 37.587C386.857 37.587 385.69 38.1526 384.835 39.2838C383.989 40.4068 383.553 41.9693 383.529 43.9713V45.2774C383.529 47.32 383.956 48.9273 384.811 50.0992C385.673 51.2629 386.857 51.8448 388.363 51.8448C389.877 51.8448 391.049 51.2955 391.879 50.1968C392.709 49.0901 393.136 47.5072 393.16 45.4483V44.1299ZM401.522 53.5904H399.178V35.817H401.522V53.5904ZM419.479 53.5904H417.123L408.175 39.8941V53.5904H405.819V35.817H408.175L417.147 49.5743V35.817H419.479V53.5904ZM437.301 53.5904H434.945L425.997 39.8941V53.5904H423.641V35.817H425.997L434.969 49.5743V35.817H437.301V53.5904ZM451.51 45.3751H443.807V51.6739H452.755V53.5904H441.464V35.817H452.633V37.7457H443.807V43.4586H451.51V45.3751ZM459.506 47.9874L459.847 50.3311L460.348 48.2193L463.863 35.817H465.841L469.271 48.2193L469.759 50.3677L470.138 47.9752L472.897 35.817H475.253L470.944 53.5904H468.807L465.145 40.6387L464.864 39.2838L464.584 40.6387L460.787 53.5904H458.651L454.354 35.817H456.698L459.506 47.9874ZM483.102 45.668C481.092 45.0902 479.627 44.3822 478.707 43.544C477.796 42.6977 477.34 41.656 477.34 40.419C477.34 39.0193 477.897 37.8637 479.012 36.9522C480.135 36.0326 481.592 35.5728 483.383 35.5728C484.603 35.5728 485.69 35.8088 486.642 36.2808C487.602 36.7528 488.343 37.4039 488.863 38.2339C489.392 39.064 489.657 39.9714 489.657 40.9561H487.301C487.301 39.8819 486.959 39.0396 486.276 38.4293C485.592 37.8108 484.628 37.5015 483.383 37.5015C482.227 37.5015 481.324 37.7579 480.673 38.2706C480.03 38.7751 479.708 39.4791 479.708 40.3824C479.708 41.1067 480.013 41.7211 480.624 42.2256C481.242 42.7221 482.288 43.1778 483.761 43.5928C485.242 44.0079 486.398 44.4677 487.228 44.9722C488.066 45.4687 488.684 46.0505 489.083 46.7178C489.49 47.3852 489.694 48.1705 489.694 49.0738C489.694 50.5142 489.132 51.6698 488.009 52.5406C486.886 53.4032 485.384 53.8345 483.505 53.8345C482.284 53.8345 481.145 53.6026 480.087 53.1387C479.029 52.6667 478.211 52.0238 477.633 51.21C477.063 50.3962 476.779 49.4726 476.779 48.439H479.134C479.134 49.5132 479.529 50.3637 480.319 50.9903C481.116 51.6088 482.178 51.918 483.505 51.918C484.742 51.918 485.69 51.6658 486.349 51.1612C487.008 50.6566 487.338 49.969 487.338 49.0982C487.338 48.2274 487.032 47.5561 486.422 47.084C485.812 46.6039 484.705 46.1319 483.102 45.668ZM502.523 48.9517H495.077L493.404 53.5904H490.987L497.775 35.817H499.825L506.625 53.5904H504.22L502.523 48.9517ZM495.785 47.023H501.827L498.8 38.71L495.785 47.023ZM518.82 45.7413H511.361V53.5904H509.017V35.817H520.028V37.7457H511.361V43.8248H518.82V45.7413ZM529.354 46.4005H525.179V53.5904H522.823V35.817H528.707C530.709 35.817 532.247 36.2727 533.321 37.1841C534.404 38.0956 534.945 39.4221 534.945 41.1636C534.945 42.2704 534.644 43.2348 534.042 44.0567C533.448 44.8786 532.618 45.4931 531.551 45.9L535.726 53.4439V53.5904H533.212L529.354 46.4005ZM525.179 44.4839H528.78C529.944 44.4839 530.868 44.1828 531.551 43.5806C532.243 42.9784 532.589 42.1728 532.589 41.1636C532.589 40.065 532.259 39.2227 531.6 38.6368C530.949 38.0508 530.005 37.7538 528.768 37.7457H525.179V44.4839ZM540.756 53.5904H538.412V35.817H540.756V53.5904ZM558.126 47.9507C557.906 49.8306 557.211 51.2833 556.039 52.3087C554.875 53.3259 553.325 53.8345 551.388 53.8345C549.288 53.8345 547.604 53.0818 546.334 51.5762C545.073 50.0707 544.442 48.0565 544.442 45.5338V43.8248C544.442 42.1728 544.735 40.7201 545.321 39.4669C545.915 38.2136 546.753 37.2533 547.836 36.586C548.918 35.9105 550.171 35.5728 551.595 35.5728C553.483 35.5728 554.997 36.1018 556.136 37.1597C557.276 38.2095 557.939 39.6662 558.126 41.5298H555.77C555.567 40.1138 555.123 39.0884 554.44 38.4537C553.764 37.8189 552.816 37.5015 551.595 37.5015C550.098 37.5015 548.922 38.0549 548.068 39.1617C547.221 40.2685 546.798 41.8432 546.798 43.8858V45.607C546.798 47.5357 547.201 49.0697 548.007 50.209C548.812 51.3484 549.939 51.918 551.388 51.918C552.69 51.918 553.687 51.6251 554.379 51.0391C555.078 50.445 555.542 49.4156 555.77 47.9507H558.126ZM571.151 48.9517H563.705L562.032 53.5904H559.615L566.403 35.817H568.453L575.253 53.5904H572.848L571.151 48.9517ZM564.413 47.023H570.455L567.428 38.71L564.413 47.023Z" fill="#FFD700"/>
</g>
<defs>
<filter id="filter0_d" x="360.925" y="35.5728" width="218.327" height="26.2617" filterUnits="userSpaceOnUse" color-interpolation-filters="sRGB">
<feFlood flood-opacity="0" result="BackgroundImageFix"/>
<feColorMatrix in="SourceAlpha" type="matrix" values="0 0 0 0 0 0 0 0 0 0 0 0 0 0 0 0 0 0 127 0"/>
<feOffset dy="4"/>
<feGaussianBlur stdDeviation="2"/>
<feColorMatrix type="matrix" values="0 0 0 0 0 0 0 0 0 0 0 0 0 0 0 0 0 0 0.25 0"/>
<feBlend mode="normal" in2="BackgroundImageFix" result="effect1_dropShadow"/>
<feBlend mode="normal" in="SourceGraphic" in2="effect1_dropShadow" result="shape"/>
</filter>
</defs>
</svg>
