<svg width="786" height="413" viewBox="0 0 786 413" fill="none" xmlns="http://www.w3.org/2000/svg">
<ellipse cx="241.775" cy="169.114" rx="196.512" ry="169.114" fill="#FFCC29"/>
<path d="M20.5852 377.288L114.72 259.154L150.375 319.5L20.5852 377.288Z" fill="#FFCC29"/>
<ellipse rx="196.512" ry="169.114" transform="matrix(-1 0 0 1 544.225 169.114)" fill="white"/>
<path d="M765.415 377.288L671.28 259.154L635.625 319.5L765.415 377.288Z" fill="white"/>
<path d="M269.772 236.968C267.77 238.021 267.028 236.855 265.492 239.314C264.299 241.524 261.648 253.67 257.165 254.796L242.987 263.477L233.739 261.095C232.556 260.504 233.739 261.095 230.189 259.322L229.031 254.833C228.811 250.752 236.007 252.371 228.383 238.939C224.264 235.876 220.145 225.496 217.57 217.148C216.902 211.478 221.357 194.818 220.128 196.594L218.574 192.3L212.193 187.701L209.095 182.478C208.788 181.009 209.912 176.775 209.605 175.306L211.513 173.603C206.848 170.699 208.955 168.014 211.905 165.736L208.363 161.408C206.855 160.3 205.614 161.541 203.885 160.102C202.283 158.769 201.254 159.233 200.259 158.04L199.617 156.766C199.454 159.988 197.667 159.514 196.517 159.663C194.287 159.954 191.9 158.104 190.503 158.648L184.975 158.244C183.079 158.105 182.417 163.455 180.522 163.316C179.158 167.19 175.535 166.27 174.275 165.995C171.817 165.458 172.468 168.789 170.304 167.862C168.487 165.213 159.789 168.552 157.268 165.051C155.566 162.687 152.323 161.185 150.848 158.568C148.609 154.599 139.191 135.99 138.892 131.739C138.745 129.646 138.611 129.72 138.495 126.418C138.405 123.851 141.889 120.723 139.719 121.431C137.981 121.998 145.161 116.68 143.802 109.373C143.458 107.526 139.474 107.305 143.438 104.955C143.067 103.564 144.11 95.9467 144.685 97.0177C145.208 97.9932 145.589 95.2652 148.344 92.686C150.023 91.1137 146.25 90.9982 148.221 89.8963C149.817 89.0038 151.722 85.2564 152.958 83.1296C154.384 80.6774 156.515 77.3012 158.206 76.6999C159.446 76.0127 160.724 75.0059 162.035 75.2722C164.522 75.7773 167.084 77.7409 169.554 73.8327C170.605 73.5403 171.664 73.1983 172.67 72.641L174.692 73.3027L180.253 71.675C181.935 71.1827 183.146 69.5524 184.827 69.06L189.133 68.2722L195.579 68.0288C196.546 68.1958 196.813 71.1909 197.78 71.3581L201.872 71.2165C202.11 71.2512 205.818 71.5904 203.82 72.2349C204.6 72.407 205.425 72.0578 206.225 71.7949C206.753 71.6216 208.359 69.7861 208.837 69.934C208.993 69.9822 208.224 71.6742 208.589 71.738C209.235 71.851 209.08 71.8705 209.514 71.88L208.879 75.7982C209.247 76.3023 206.85 78.2958 210.998 78.6983L211.519 79.7601C211.745 80.4175 213.822 80.3632 214.048 81.0208C215.013 81.2928 211.369 83.8663 216.332 83.9106C221.295 83.9551 220.688 87.244 221.929 87.4593C225.559 88.0901 227.512 89.072 229.196 89.5593C230.88 90.0467 232.558 90.0096 232.947 87.4771C232.641 86.8533 232.602 85.9115 232.296 85.2879L230.897 84.8452L231.293 80.6684C231.865 79.7367 233.448 80.0369 234.559 80.1211L238.026 82.7838C238.704 82.9623 239.522 81.4973 240.199 81.6759L242.512 82.293C246.34 85.4075 249.86 84.2538 253.534 85.234L255.231 85.0032C256.23 86.4152 256.637 90.0119 256.813 90.6104L255.64 92.6308C255.277 92.7066 255.002 90.5819 254.638 90.6578C253.627 91.4779 251.77 88.3184 250.604 87.919L253.783 91.6827C254.388 92.2675 254.686 94.5293 255.291 95.1145L256.7 98.3528L258.673 99.6872C259.221 100.279 259.035 102.041 259.583 102.633L262.189 105.463C262.723 106.245 263.322 106.767 263.597 108.293C263.883 109.878 264.384 110.778 265.387 110.903C265.885 110.965 265.52 111.866 266.038 112.42C266.79 113.226 268.042 113.864 268.186 114.843C268.679 118.202 270.312 117.533 270.881 118.608C272.391 121.461 273.031 122.558 274.674 124.261C274.935 124.531 276.441 124.366 276.56 124.8C276.632 125.065 276.479 125.505 276.592 125.739C276.702 125.967 275.853 126.894 275.956 127.13L277.006 129.547C277.11 129.787 277.39 128.532 277.468 127.819L278.561 128.532L279.434 128.037C279.733 127.65 280.431 127.232 280.729 126.845L282.047 125.333C282.239 125.194 283.819 123.988 284.011 123.849C284.66 124.289 287.433 125.018 287.88 124.808C300.989 118.629 289.192 127.867 305.468 119.131C305.63 121.939 300.326 137.329 300.197 136.651L290.823 151.558L287.43 157.351" stroke="white" stroke-width="10" stroke-miterlimit="22.9256"/>
<path fill-rule="evenodd" clip-rule="evenodd" d="M330.427 224.21L330.634 226.219L330.728 227.591C330.305 228.535 330.256 228.062 330.137 227.879C329.684 227.182 329.381 227.477 329.448 228.204C329.42 228.992 328.781 230.296 329.181 230.906L329.343 231.153L329.322 231.736C329.262 232.08 328.864 232.492 329.143 232.751C328.663 233.625 328.879 234.255 328.75 234.965C328.661 235.458 328.275 236.178 328.188 236.645C328.118 237.024 328.348 237.155 328.279 237.518C328.231 237.772 328.183 238.023 328.135 238.269C328.049 238.71 327.592 239.297 327.507 239.714C326.69 241.943 326.304 243.763 326.261 245.131C326.067 245.755 325.551 246.412 325.384 246.928C325.198 247.5 325.466 248.006 325.189 248.385C324.334 249.553 323.641 250.337 323.282 251.086C322.886 251.669 323.114 252.737 322.447 252.763C321.857 252.786 321.355 253.355 321.196 253.73C320.934 253.891 320.944 254.246 320.656 254.324C320.32 254.415 319.973 254.456 319.613 254.422C319.404 254.46 318.912 254.286 318.575 254.372C318.218 254.463 318.012 254.816 317.593 254.848C317.088 254.886 316.694 254.291 316.221 253.87C315.943 253.623 315.552 253.723 315.324 253.237C315.191 252.954 315.328 252.714 315.215 252.342L314.764 251.302C314.911 250.601 315.114 249.785 315.049 248.935C315.456 247.371 315.383 246.361 315.175 245.251C315.108 244.897 314.616 244.285 314.656 243.963C314.605 242.73 314.69 242.955 316.847 241.785C317.626 241.362 317.301 239.917 317.569 239.207C317.835 238.502 318.737 238.822 318.06 237.045C317.759 236.253 318.432 235.442 318.626 234.603C318.918 233.419 317.121 229.862 318.411 228.762C318.696 228.519 318.375 227.97 319.363 228.013C319.977 228.039 320.504 227.221 321.21 226.796C322.175 226.215 323.457 227.012 324.79 226.288C325.032 226.157 325.117 224.544 325.37 224.404C325.509 224.327 325.639 224.218 325.777 224.124C325.77 224.792 325.984 224.019 326.123 223.906C326.27 223.788 326.351 224.274 326.509 224.082C326.695 223.854 326.927 223.934 327.223 223.568C327.492 223.235 327.823 222.439 328.04 222.436C328.33 222.432 328.583 222.826 328.885 222.778C329.32 222.708 330.042 221.369 329.776 221.684C329.045 222.55 331.219 220.291 330.427 224.21V224.21Z" stroke="white" stroke-width="10" stroke-miterlimit="22.9256"/>
<path fill-rule="evenodd" clip-rule="evenodd" d="M336.103 250.97L336.126 251.193L336.136 251.346C336.089 251.451 336.083 251.398 336.07 251.378C336.02 251.3 335.986 251.333 335.994 251.414C335.991 251.502 335.92 251.647 335.964 251.714L335.982 251.742L335.98 251.807C335.973 251.845 335.929 251.891 335.96 251.92C335.906 252.017 335.93 252.087 335.916 252.166C335.906 252.221 335.863 252.3 335.854 252.352C335.846 252.395 335.871 252.409 335.864 252.449C335.858 252.478 335.853 252.506 335.848 252.533C335.838 252.582 335.787 252.647 335.778 252.694C335.687 252.941 335.644 253.144 335.639 253.296C335.618 253.365 335.56 253.438 335.542 253.496C335.521 253.559 335.551 253.616 335.52 253.658C335.425 253.788 335.348 253.875 335.308 253.958C335.264 254.023 335.29 254.142 335.215 254.145C335.15 254.147 335.094 254.21 335.076 254.252C335.047 254.27 335.048 254.309 335.016 254.318C334.979 254.328 334.94 254.333 334.9 254.329C334.877 254.333 334.822 254.314 334.785 254.323C334.745 254.334 334.722 254.373 334.676 254.376C334.62 254.381 334.576 254.314 334.523 254.268C334.492 254.24 334.449 254.251 334.423 254.197C334.409 254.166 334.424 254.139 334.411 254.098L334.361 253.982C334.378 253.904 334.4 253.813 334.393 253.719C334.438 253.545 334.43 253.433 334.407 253.309C334.399 253.27 334.345 253.202 334.349 253.166C334.343 253.029 334.353 253.054 334.593 252.924C334.679 252.877 334.643 252.716 334.673 252.637C334.703 252.559 334.803 252.595 334.728 252.397C334.694 252.309 334.769 252.219 334.791 252.125C334.823 251.994 334.623 251.598 334.767 251.476C334.798 251.449 334.763 251.388 334.873 251.393C334.941 251.396 334.999 251.305 335.078 251.257C335.185 251.193 335.328 251.282 335.476 251.201C335.503 251.186 335.512 251.007 335.54 250.991C335.556 250.983 335.57 250.971 335.586 250.96C335.585 251.035 335.609 250.949 335.624 250.936C335.64 250.923 335.649 250.977 335.667 250.956C335.688 250.93 335.713 250.939 335.746 250.899C335.776 250.862 335.813 250.773 335.837 250.773C335.869 250.772 335.898 250.816 335.931 250.811C335.98 250.803 336.06 250.654 336.03 250.689C335.949 250.785 336.191 250.534 336.103 250.97V250.97Z" stroke="white" stroke-width="10" stroke-miterlimit="22.9256"/>
<path fill-rule="evenodd" clip-rule="evenodd" d="M316.642 220.142L316.675 220.463L316.69 220.682C316.623 220.833 316.615 220.757 316.596 220.728C316.523 220.617 316.475 220.663 316.486 220.78C316.481 220.906 316.379 221.114 316.443 221.211L316.469 221.251L316.466 221.344C316.456 221.399 316.392 221.465 316.437 221.506C316.36 221.646 316.395 221.746 316.374 221.86C316.36 221.938 316.298 222.053 316.284 222.128C316.273 222.188 316.31 222.209 316.299 222.267C316.291 222.308 316.284 222.348 316.276 222.387C316.262 222.458 316.189 222.552 316.176 222.618C316.045 222.974 315.983 223.265 315.977 223.483C315.946 223.583 315.863 223.688 315.836 223.77C315.807 223.862 315.85 223.943 315.805 224.003C315.669 224.19 315.558 224.315 315.501 224.435C315.438 224.528 315.474 224.698 315.367 224.702C315.273 224.706 315.193 224.797 315.167 224.857C315.126 224.883 315.127 224.939 315.081 224.952C315.028 224.966 314.972 224.973 314.915 224.967C314.881 224.974 314.803 224.946 314.749 224.959C314.692 224.974 314.659 225.03 314.592 225.035C314.511 225.041 314.448 224.947 314.373 224.879C314.329 224.84 314.266 224.856 314.23 224.778C314.208 224.733 314.23 224.695 314.212 224.635L314.14 224.469C314.164 224.357 314.196 224.227 314.186 224.091C314.251 223.841 314.239 223.68 314.206 223.503C314.195 223.446 314.117 223.348 314.123 223.297C314.115 223.1 314.128 223.136 314.473 222.949C314.597 222.881 314.545 222.651 314.588 222.537C314.631 222.425 314.775 222.476 314.667 222.192C314.619 222.065 314.726 221.936 314.757 221.802C314.804 221.613 314.517 221.045 314.723 220.869C314.768 220.83 314.717 220.742 314.875 220.749C314.973 220.753 315.057 220.623 315.17 220.555C315.324 220.462 315.529 220.589 315.742 220.474C315.78 220.453 315.794 220.195 315.834 220.173C315.857 220.16 315.877 220.143 315.899 220.128C315.898 220.235 315.932 220.111 315.955 220.093C315.978 220.074 315.991 220.152 316.016 220.121C316.046 220.085 316.083 220.098 316.13 220.039C316.173 219.986 316.226 219.859 316.261 219.858C316.307 219.858 316.348 219.921 316.396 219.913C316.465 219.902 316.581 219.688 316.538 219.738C316.421 219.877 316.768 219.516 316.642 220.142V220.142Z" stroke="white" stroke-width="10" stroke-miterlimit="22.9256"/>
<path d="M274.904 163.78C293.591 163.78 308.74 160.972 308.74 157.507C308.74 154.042 293.591 151.233 274.904 151.233C256.217 151.233 241.068 154.042 241.068 157.507C241.068 160.972 256.217 163.78 274.904 163.78Z" fill="white"/>
<path d="M274.699 192.916C293.386 192.916 308.535 190.107 308.535 186.642C308.535 183.177 293.386 180.368 274.699 180.368C256.012 180.368 240.863 183.177 240.863 186.642C240.863 190.107 256.012 192.916 274.699 192.916Z" fill="white"/>
<path d="M274.911 177.872C293.598 177.872 308.747 175.063 308.747 171.598C308.747 168.133 293.598 165.324 274.911 165.324C256.224 165.324 241.075 168.133 241.075 171.598C241.075 175.063 256.224 177.872 274.911 177.872Z" fill="white"/>
<path d="M274.863 207.883C293.55 207.883 308.698 205.074 308.698 201.609C308.698 198.144 293.55 195.335 274.863 195.335C256.175 195.335 241.027 198.144 241.027 201.609C241.027 205.074 256.175 207.883 274.863 207.883Z" fill="white"/>
<path d="M275.009 236.279C293.696 236.279 308.844 233.47 308.844 230.006C308.844 226.541 293.696 223.732 275.009 223.732C256.322 223.732 241.173 226.541 241.173 230.006C241.173 233.47 256.322 236.279 275.009 236.279Z" fill="white"/>
<path d="M274.87 221.974C293.557 221.974 308.706 219.165 308.706 215.7C308.706 212.235 293.557 209.426 274.87 209.426C256.183 209.426 241.034 212.235 241.034 215.7C241.034 219.165 256.183 221.974 274.87 221.974Z" fill="white"/>
<path d="M274.999 250.29C293.686 250.29 308.834 247.481 308.834 244.016C308.834 240.551 293.686 237.743 274.999 237.743C256.312 237.743 241.163 240.551 241.163 244.016C241.163 247.481 256.312 250.29 274.999 250.29Z" fill="white"/>
<path d="M588.977 235.052C586.975 236.105 586.233 234.938 584.697 237.398C583.504 239.607 580.853 251.754 576.37 252.88L562.191 261.56L552.944 259.179C551.761 258.587 552.944 259.179 549.394 257.405L548.236 252.917C548.016 248.835 555.211 250.454 547.588 237.023C543.469 233.96 539.35 223.579 536.775 215.231C536.107 209.561 540.562 192.901 539.333 194.678L537.779 190.384L531.398 185.785L528.3 180.562C527.993 179.093 529.117 174.859 528.81 173.39L530.718 171.686C526.053 168.782 528.16 166.097 531.11 163.82L527.568 159.492C526.06 158.384 524.819 159.624 523.09 158.186C521.488 156.853 520.459 157.316 519.464 156.123L518.822 154.849C518.659 158.072 516.872 157.597 515.722 157.747C513.492 158.037 511.105 156.188 509.708 156.732L504.18 156.328C502.284 156.189 501.622 161.539 499.727 161.4C498.363 165.274 494.74 164.354 493.48 164.079C491.022 163.542 491.673 166.873 489.509 165.946C487.692 163.297 478.994 166.636 476.473 163.135C474.771 160.771 471.528 159.268 470.053 156.652C467.814 152.683 458.396 134.073 458.097 129.822C457.95 127.73 457.816 127.804 457.7 124.501C457.61 121.935 461.094 118.806 458.924 119.515C457.186 120.082 464.366 114.764 463.006 107.457C462.663 105.61 458.679 105.389 462.643 103.038C462.272 101.648 463.315 94.0304 463.89 95.1014C464.413 96.0769 464.794 93.3489 467.549 90.7697C469.228 89.1974 465.455 89.0819 467.426 87.98C469.022 87.0875 470.927 83.3401 472.163 81.2133C473.589 78.7611 475.72 75.3848 477.411 74.7836C478.651 74.0964 479.929 73.0896 481.24 73.3559C483.727 73.861 486.289 75.8246 488.759 71.9164C489.81 71.624 490.869 71.282 491.875 70.7247L493.897 71.3863L499.458 69.7587C501.14 69.2664 502.351 67.6361 504.032 67.1437L508.338 66.3559L514.784 66.1125C515.751 66.2794 516.017 69.2746 516.985 69.4418L521.077 69.3002C521.315 69.3349 525.023 69.6741 523.025 70.3186C523.805 70.4907 524.63 70.1415 525.43 69.8786C525.958 69.7053 527.564 67.8698 528.042 68.0177C528.198 68.0659 527.429 69.7578 527.794 69.8217C528.44 69.9347 528.285 69.9542 528.719 69.9637L528.084 73.8819C528.452 74.386 526.055 76.3795 530.202 76.782L530.724 77.8438C530.95 78.5012 533.027 78.4469 533.253 79.1045C534.218 79.3765 530.574 81.95 535.537 81.9943C540.5 82.0388 539.893 85.3277 541.134 85.543C544.764 86.1738 546.717 87.1557 548.401 87.643C550.085 88.1304 551.762 88.0933 552.152 85.5608C551.846 84.937 551.807 83.9952 551.501 83.3716L550.102 82.9289L550.498 78.7521C551.069 77.8204 552.652 78.1206 553.764 78.2048L557.231 80.8675C557.908 81.046 558.727 79.581 559.404 79.7596L561.717 80.3767C565.545 83.4912 569.065 82.3374 572.739 83.3177L574.436 83.0869C575.434 84.4989 575.842 88.0956 576.018 88.6941L574.845 90.7145C574.482 90.7903 574.207 88.6656 573.843 88.7415C572.832 89.5616 570.975 86.4021 569.809 86.0027L572.987 89.7664C573.593 90.3512 573.89 92.613 574.496 93.1982L575.905 96.4365L577.878 97.7709C578.426 98.363 578.24 100.125 578.788 100.717L581.394 103.547C581.928 104.328 582.527 104.85 582.802 106.376C583.088 107.961 583.589 108.861 584.592 108.987C585.09 109.049 584.725 109.949 585.243 110.504C585.995 111.309 587.247 111.948 587.391 112.927C587.884 116.285 589.517 115.617 590.086 116.692C591.596 119.544 592.236 120.642 593.879 122.344C594.14 122.615 595.646 122.45 595.764 122.883C595.837 123.149 595.684 123.589 595.796 123.822C595.907 124.051 595.058 124.977 595.161 125.214L596.211 127.631C596.315 127.871 596.594 126.615 596.673 125.903L597.766 126.616L598.639 126.12C598.937 125.734 599.636 125.315 599.934 124.929L601.252 123.417C601.444 123.278 603.024 122.072 603.216 121.933C603.865 122.373 606.638 123.101 607.084 122.891C620.194 116.713 608.397 125.95 624.673 117.215C624.835 120.023 619.531 135.413 619.402 134.734L610.028 149.642L606.634 155.435" stroke="#FFCC29" stroke-width="10" stroke-miterlimit="22.9256"/>
<path fill-rule="evenodd" clip-rule="evenodd" d="M649.632 222.294L649.839 224.303L649.933 225.674C649.51 226.619 649.461 226.146 649.342 225.963C648.889 225.266 648.586 225.56 648.653 226.288C648.625 227.076 647.986 228.38 648.386 228.99L648.548 229.237L648.527 229.82C648.467 230.163 648.069 230.575 648.348 230.835C647.868 231.709 648.084 232.338 647.955 233.049C647.866 233.542 647.48 234.261 647.393 234.729C647.323 235.107 647.553 235.239 647.484 235.601C647.436 235.856 647.388 236.106 647.34 236.353C647.254 236.794 646.797 237.38 646.712 237.798C645.895 240.026 645.509 241.847 645.466 243.215C645.272 243.839 644.756 244.496 644.589 245.012C644.403 245.584 644.671 246.089 644.394 246.468C643.539 247.637 642.846 248.421 642.487 249.17C642.091 249.753 642.319 250.821 641.652 250.847C641.062 250.87 640.56 251.439 640.401 251.814C640.139 251.975 640.149 252.33 639.861 252.408C639.525 252.498 639.178 252.54 638.818 252.506C638.609 252.544 638.117 252.369 637.78 252.456C637.423 252.547 637.217 252.899 636.798 252.931C636.293 252.97 635.899 252.375 635.426 251.953C635.148 251.706 634.757 251.807 634.529 251.32C634.396 251.037 634.533 250.798 634.42 250.426L633.969 249.385C634.116 248.685 634.319 247.869 634.254 247.019C634.661 245.454 634.588 244.445 634.38 243.335C634.313 242.98 633.821 242.369 633.861 242.047C633.81 240.814 633.895 241.039 636.052 239.868C636.831 239.446 636.505 238.001 636.774 237.29C637.04 236.585 637.942 236.906 637.265 235.129C636.964 234.336 637.637 233.526 637.831 232.687C638.123 231.503 636.326 227.946 637.616 226.846C637.901 226.603 637.58 226.054 638.568 226.096C639.182 226.123 639.709 225.305 640.415 224.879C641.38 224.298 642.662 225.096 643.995 224.371C644.237 224.24 644.322 222.628 644.575 222.487C644.714 222.41 644.844 222.302 644.982 222.207C644.975 222.876 645.189 222.102 645.328 221.99C645.475 221.871 645.556 222.358 645.714 222.165C645.9 221.938 646.132 222.018 646.428 221.652C646.696 221.319 647.028 220.523 647.245 220.52C647.535 220.516 647.788 220.91 648.09 220.861C648.525 220.792 649.247 219.453 648.981 219.768C648.25 220.634 650.424 218.374 649.632 222.294V222.294Z" stroke="#FFCC29" stroke-width="10" stroke-miterlimit="22.9256"/>
<path fill-rule="evenodd" clip-rule="evenodd" d="M655.308 249.054L655.331 249.277L655.341 249.429C655.294 249.535 655.288 249.482 655.275 249.461C655.225 249.384 655.191 249.417 655.199 249.498C655.196 249.585 655.125 249.73 655.169 249.798L655.187 249.826L655.185 249.89C655.178 249.929 655.134 249.974 655.165 250.003C655.111 250.101 655.135 250.17 655.121 250.249C655.111 250.304 655.068 250.384 655.059 250.436C655.051 250.478 655.076 250.493 655.069 250.533C655.063 250.561 655.058 250.589 655.053 250.617C655.043 250.666 654.992 250.731 654.983 250.777C654.892 251.025 654.849 251.228 654.844 251.38C654.823 251.449 654.765 251.522 654.747 251.579C654.726 251.643 654.756 251.699 654.725 251.741C654.63 251.871 654.553 251.958 654.513 252.042C654.469 252.107 654.494 252.225 654.42 252.228C654.355 252.231 654.299 252.294 654.281 252.336C654.252 252.354 654.253 252.393 654.221 252.402C654.184 252.412 654.145 252.416 654.105 252.413C654.082 252.417 654.027 252.397 653.99 252.407C653.95 252.417 653.927 252.456 653.881 252.46C653.824 252.464 653.781 252.398 653.728 252.351C653.697 252.324 653.654 252.335 653.628 252.281C653.614 252.249 653.629 252.223 653.616 252.181L653.566 252.066C653.583 251.988 653.605 251.897 653.598 251.803C653.643 251.629 653.635 251.516 653.612 251.393C653.604 251.354 653.55 251.286 653.554 251.25C653.548 251.113 653.558 251.138 653.798 251.008C653.884 250.961 653.848 250.8 653.878 250.721C653.908 250.643 654.008 250.678 653.933 250.481C653.899 250.393 653.974 250.302 653.996 250.209C654.028 250.078 653.828 249.682 653.972 249.56C654.003 249.533 653.968 249.472 654.077 249.476C654.146 249.479 654.204 249.388 654.283 249.341C654.39 249.276 654.533 249.365 654.681 249.285C654.708 249.27 654.717 249.091 654.745 249.075C654.761 249.067 654.775 249.054 654.791 249.044C654.79 249.118 654.814 249.032 654.829 249.02C654.845 249.007 654.854 249.061 654.872 249.039C654.893 249.014 654.918 249.023 654.951 248.982C654.981 248.945 655.018 248.857 655.042 248.856C655.074 248.856 655.103 248.9 655.136 248.894C655.184 248.887 655.265 248.738 655.235 248.773C655.154 248.869 655.396 248.618 655.308 249.054V249.054Z" stroke="#FFCC29" stroke-width="10" stroke-miterlimit="22.9256"/>
<path fill-rule="evenodd" clip-rule="evenodd" d="M635.847 218.225L635.88 218.546L635.895 218.765C635.828 218.916 635.82 218.841 635.801 218.811C635.728 218.7 635.68 218.747 635.691 218.863C635.686 218.989 635.584 219.198 635.648 219.295L635.674 219.334L635.67 219.427C635.661 219.482 635.597 219.548 635.642 219.59C635.565 219.729 635.6 219.83 635.579 219.943C635.565 220.022 635.503 220.137 635.489 220.212C635.478 220.272 635.515 220.293 635.504 220.351C635.496 220.392 635.489 220.432 635.481 220.471C635.467 220.541 635.394 220.635 635.381 220.702C635.25 221.058 635.188 221.349 635.182 221.567C635.15 221.667 635.068 221.772 635.041 221.854C635.012 221.946 635.055 222.026 635.01 222.087C634.874 222.274 634.763 222.399 634.706 222.518C634.642 222.611 634.679 222.782 634.572 222.786C634.478 222.79 634.398 222.881 634.372 222.941C634.331 222.966 634.332 223.023 634.286 223.036C634.233 223.05 634.177 223.057 634.12 223.051C634.086 223.057 634.008 223.029 633.954 223.043C633.897 223.058 633.864 223.114 633.797 223.119C633.716 223.125 633.653 223.03 633.578 222.963C633.533 222.923 633.471 222.939 633.435 222.862C633.413 222.817 633.435 222.778 633.417 222.719L633.345 222.553C633.369 222.441 633.401 222.31 633.391 222.175C633.456 221.925 633.444 221.764 633.411 221.586C633.4 221.53 633.321 221.432 633.328 221.381C633.32 221.184 633.333 221.22 633.678 221.033C633.802 220.965 633.75 220.734 633.793 220.621C633.836 220.508 633.98 220.559 633.872 220.276C633.824 220.149 633.931 220.02 633.962 219.886C634.009 219.696 633.722 219.128 633.928 218.953C633.973 218.914 633.922 218.826 634.08 218.833C634.178 218.837 634.262 218.706 634.375 218.638C634.529 218.546 634.734 218.673 634.947 218.557C634.985 218.536 634.999 218.279 635.039 218.256C635.062 218.244 635.082 218.227 635.104 218.212C635.103 218.318 635.137 218.195 635.16 218.177C635.183 218.158 635.196 218.236 635.221 218.205C635.251 218.169 635.288 218.181 635.335 218.123C635.378 218.07 635.431 217.943 635.466 217.942C635.512 217.941 635.553 218.004 635.601 217.997C635.67 217.986 635.786 217.772 635.743 217.822C635.626 217.96 635.973 217.599 635.847 218.225V218.225Z" stroke="#FFCC29" stroke-width="10" stroke-miterlimit="22.9256"/>
<path d="M594.109 161.864C612.796 161.864 627.945 159.055 627.945 155.59C627.945 152.125 612.796 149.317 594.109 149.317C575.422 149.317 560.273 152.125 560.273 155.59C560.273 159.055 575.422 161.864 594.109 161.864Z" fill="#FFCC29"/>
<path d="M593.904 191C612.591 191 627.74 188.191 627.74 184.726C627.74 181.261 612.591 178.452 593.904 178.452C575.217 178.452 560.068 181.261 560.068 184.726C560.068 188.191 575.217 191 593.904 191Z" fill="#FFCC29"/>
<path d="M594.116 175.955C612.803 175.955 627.952 173.146 627.952 169.681C627.952 166.217 612.803 163.408 594.116 163.408C575.429 163.408 560.28 166.217 560.28 169.681C560.28 173.146 575.429 175.955 594.116 175.955Z" fill="#FFCC29"/>
<path d="M594.067 205.966C612.754 205.966 627.903 203.158 627.903 199.693C627.903 196.228 612.754 193.419 594.067 193.419C575.38 193.419 560.232 196.228 560.232 199.693C560.232 203.158 575.38 205.966 594.067 205.966Z" fill="#FFCC29"/>
<path d="M594.214 234.363C612.901 234.363 628.049 231.554 628.049 228.089C628.049 224.624 612.901 221.815 594.214 221.815C575.527 221.815 560.378 224.624 560.378 228.089C560.378 231.554 575.527 234.363 594.214 234.363Z" fill="#FFCC29"/>
<path d="M594.075 220.058C612.762 220.058 627.911 217.249 627.911 213.784C627.911 210.319 612.762 207.51 594.075 207.51C575.388 207.51 560.239 210.319 560.239 213.784C560.239 217.249 575.388 220.058 594.075 220.058Z" fill="#FFCC29"/>
<path d="M594.204 248.374C612.891 248.374 628.039 245.565 628.039 242.1C628.039 238.635 612.891 235.826 594.204 235.826C575.517 235.826 560.368 238.635 560.368 242.1C560.368 245.565 575.517 248.374 594.204 248.374Z" fill="#FFCC29"/>
</svg>
