<svg width="627" height="235" viewBox="0 0 627 235" fill="none" xmlns="http://www.w3.org/2000/svg">
<rect width="300" height="235" fill="white"/>
<rect x="300" width="327" height="235" fill="white"/>
<path d="M361.062 80.2832H342.576V95.4004H364.051V100H336.951V57.3438H363.758V61.9727H342.576V75.6836H361.062V80.2832ZM380.838 79.873L387.869 68.3008H394.197L383.826 83.9746L394.52 100H388.25L380.926 88.1348L373.602 100H367.303L377.996 83.9746L367.625 68.3008H373.895L380.838 79.873ZM426.746 84.502C426.746 89.3262 425.643 93.2129 423.436 96.1621C421.229 99.1113 418.24 100.586 414.471 100.586C410.623 100.586 407.596 99.3652 405.389 96.9238V112.188H399.969V68.3008H404.92L405.184 71.8164C407.391 69.082 410.457 67.7148 414.383 67.7148C418.191 67.7148 421.199 69.1504 423.406 72.0215C425.633 74.8926 426.746 78.8867 426.746 84.0039V84.502ZM421.326 83.8867C421.326 80.3125 420.564 77.4902 419.041 75.4199C417.518 73.3496 415.428 72.3145 412.771 72.3145C409.49 72.3145 407.029 73.7695 405.389 76.6797V91.8262C407.01 94.7168 409.49 96.1621 412.83 96.1621C415.428 96.1621 417.488 95.1367 419.012 93.0859C420.555 91.0156 421.326 87.9492 421.326 83.8867ZM439.549 100H434.129V55H439.549V100ZM467.82 100C467.508 99.375 467.254 98.2617 467.059 96.6602C464.539 99.2773 461.531 100.586 458.035 100.586C454.91 100.586 452.342 99.707 450.33 97.9492C448.338 96.1719 447.342 93.9258 447.342 91.2109C447.342 87.9102 448.592 85.3516 451.092 83.5352C453.611 81.6992 457.146 80.7812 461.697 80.7812H466.971V78.291C466.971 76.3965 466.404 74.8926 465.271 73.7793C464.139 72.6465 462.469 72.0801 460.262 72.0801C458.328 72.0801 456.707 72.5684 455.398 73.5449C454.09 74.5215 453.436 75.7031 453.436 77.0898H447.986C447.986 75.5078 448.543 73.9844 449.656 72.5195C450.789 71.0352 452.312 69.8633 454.227 69.0039C456.16 68.1445 458.279 67.7148 460.584 67.7148C464.236 67.7148 467.098 68.6328 469.168 70.4688C471.238 72.2852 472.312 74.7949 472.391 77.998V92.5879C472.391 95.498 472.762 97.8125 473.504 99.5312V100H467.82ZM458.826 95.8691C460.525 95.8691 462.137 95.4297 463.66 94.5508C465.184 93.6719 466.287 92.5293 466.971 91.123V84.6191H462.723C456.082 84.6191 452.762 86.5625 452.762 90.4492C452.762 92.1484 453.328 93.4766 454.461 94.4336C455.594 95.3906 457.049 95.8691 458.826 95.8691ZM486.775 100H481.355V68.3008H486.775V100ZM480.916 59.8926C480.916 59.0137 481.18 58.2715 481.707 57.666C482.254 57.0605 483.055 56.7578 484.109 56.7578C485.164 56.7578 485.965 57.0605 486.512 57.666C487.059 58.2715 487.332 59.0137 487.332 59.8926C487.332 60.7715 487.059 61.5039 486.512 62.0898C485.965 62.6758 485.164 62.9688 484.109 62.9688C483.055 62.9688 482.254 62.6758 481.707 62.0898C481.18 61.5039 480.916 60.7715 480.916 59.8926ZM500.604 68.3008L500.779 72.2852C503.201 69.2383 506.365 67.7148 510.271 67.7148C516.971 67.7148 520.35 71.4941 520.408 79.0527V100H514.988V79.0234C514.969 76.7383 514.441 75.0488 513.406 73.9551C512.391 72.8613 510.799 72.3145 508.631 72.3145C506.873 72.3145 505.33 72.7832 504.002 73.7207C502.674 74.6582 501.639 75.8887 500.896 77.4121V100H495.477V68.3008H500.604ZM541.736 100.586C537.439 100.586 533.943 99.1797 531.248 96.3672C528.553 93.5352 527.205 89.7559 527.205 85.0293V84.0332C527.205 80.8887 527.801 78.0859 528.992 75.625C530.203 73.1445 531.883 71.2109 534.031 69.8242C536.199 68.418 538.543 67.7148 541.062 67.7148C545.184 67.7148 548.387 69.0723 550.672 71.7871C552.957 74.502 554.1 78.3887 554.1 83.4473V85.7031H532.625C532.703 88.8281 533.611 91.3574 535.35 93.291C537.107 95.2051 539.334 96.1621 542.029 96.1621C543.943 96.1621 545.564 95.7715 546.893 94.9902C548.221 94.209 549.383 93.1738 550.379 91.8848L553.689 94.4629C551.033 98.5449 547.049 100.586 541.736 100.586ZM541.062 72.168C538.875 72.168 537.039 72.9688 535.555 74.5703C534.07 76.1523 533.152 78.3789 532.801 81.25H548.68V80.8398C548.523 78.0859 547.781 75.957 546.453 74.4531C545.125 72.9297 543.328 72.168 541.062 72.168ZM559.08 83.8867C559.08 79.0234 560.232 75.1172 562.537 72.168C564.842 69.1992 567.859 67.7148 571.59 67.7148C575.301 67.7148 578.24 68.9844 580.408 71.5234V55H585.828V100H580.848L580.584 96.6016C578.416 99.2578 575.398 100.586 571.531 100.586C567.859 100.586 564.861 99.082 562.537 96.0742C560.232 93.0664 559.08 89.1406 559.08 84.2969V83.8867ZM564.5 84.502C564.5 88.0957 565.242 90.9082 566.727 92.9395C568.211 94.9707 570.262 95.9863 572.879 95.9863C576.316 95.9863 578.826 94.4434 580.408 91.3574V76.7969C578.787 73.8086 576.297 72.3145 572.938 72.3145C570.281 72.3145 568.211 73.3398 566.727 75.3906C565.242 77.4414 564.5 80.4785 564.5 84.502Z" fill="black"/>
<path d="M360.506 158.867H342.635L338.621 170H332.82L349.109 127.344H354.031L370.35 170H364.578L360.506 158.867ZM344.334 154.238H358.836L351.57 134.287L344.334 154.238ZM390.564 143.164C389.744 143.027 388.855 142.959 387.898 142.959C384.344 142.959 381.932 144.473 380.662 147.5V170H375.242V138.301H380.516L380.604 141.963C382.381 139.131 384.9 137.715 388.162 137.715C389.217 137.715 390.018 137.852 390.564 138.125V143.164ZM404.393 130.625V138.301H410.311V142.49H404.393V162.148C404.393 163.418 404.656 164.375 405.184 165.02C405.711 165.645 406.609 165.957 407.879 165.957C408.504 165.957 409.363 165.84 410.457 165.605V170C409.031 170.391 407.645 170.586 406.297 170.586C403.875 170.586 402.049 169.854 400.818 168.389C399.588 166.924 398.973 164.844 398.973 162.148V142.49H393.201V138.301H398.973V130.625H404.393ZM422.557 170H417.137V138.301H422.557V170ZM416.697 129.893C416.697 129.014 416.961 128.271 417.488 127.666C418.035 127.061 418.836 126.758 419.891 126.758C420.945 126.758 421.746 127.061 422.293 127.666C422.84 128.271 423.113 129.014 423.113 129.893C423.113 130.771 422.84 131.504 422.293 132.09C421.746 132.676 420.945 132.969 419.891 132.969C418.836 132.969 418.035 132.676 417.488 132.09C416.961 131.504 416.697 130.771 416.697 129.893ZM443.973 166.162C445.906 166.162 447.596 165.576 449.041 164.404C450.486 163.232 451.287 161.768 451.443 160.01H456.57C456.473 161.826 455.848 163.555 454.695 165.195C453.543 166.836 452 168.145 450.066 169.121C448.152 170.098 446.121 170.586 443.973 170.586C439.656 170.586 436.219 169.15 433.66 166.279C431.121 163.389 429.852 159.443 429.852 154.443V153.535C429.852 150.449 430.418 147.705 431.551 145.303C432.684 142.9 434.305 141.035 436.414 139.707C438.543 138.379 441.053 137.715 443.943 137.715C447.498 137.715 450.447 138.779 452.791 140.908C455.154 143.037 456.414 145.801 456.57 149.199H451.443C451.287 147.148 450.506 145.469 449.1 144.16C447.713 142.832 445.994 142.168 443.943 142.168C441.189 142.168 439.051 143.164 437.527 145.156C436.023 147.129 435.271 149.99 435.271 153.74V154.766C435.271 158.418 436.023 161.23 437.527 163.203C439.031 165.176 441.18 166.162 443.973 166.162ZM468.553 170H463.133V125H468.553V170ZM490.408 170.586C486.111 170.586 482.615 169.18 479.92 166.367C477.225 163.535 475.877 159.756 475.877 155.029V154.033C475.877 150.889 476.473 148.086 477.664 145.625C478.875 143.145 480.555 141.211 482.703 139.824C484.871 138.418 487.215 137.715 489.734 137.715C493.855 137.715 497.059 139.072 499.344 141.787C501.629 144.502 502.771 148.389 502.771 153.447V155.703H481.297C481.375 158.828 482.283 161.357 484.021 163.291C485.779 165.205 488.006 166.162 490.701 166.162C492.615 166.162 494.236 165.771 495.564 164.99C496.893 164.209 498.055 163.174 499.051 161.885L502.361 164.463C499.705 168.545 495.721 170.586 490.408 170.586ZM489.734 142.168C487.547 142.168 485.711 142.969 484.227 144.57C482.742 146.152 481.824 148.379 481.473 151.25H497.352V150.84C497.195 148.086 496.453 145.957 495.125 144.453C493.797 142.93 492 142.168 489.734 142.168ZM527.527 161.592C527.527 160.127 526.971 158.994 525.857 158.193C524.764 157.373 522.84 156.67 520.086 156.084C517.352 155.498 515.174 154.795 513.553 153.975C511.951 153.154 510.76 152.178 509.979 151.045C509.217 149.912 508.836 148.564 508.836 147.002C508.836 144.404 509.93 142.207 512.117 140.41C514.324 138.613 517.137 137.715 520.555 137.715C524.148 137.715 527.059 138.643 529.285 140.498C531.531 142.354 532.654 144.727 532.654 147.617H527.205C527.205 146.133 526.57 144.854 525.301 143.779C524.051 142.705 522.469 142.168 520.555 142.168C518.582 142.168 517.039 142.598 515.926 143.457C514.812 144.316 514.256 145.439 514.256 146.826C514.256 148.135 514.773 149.121 515.809 149.785C516.844 150.449 518.709 151.084 521.404 151.689C524.119 152.295 526.316 153.018 527.996 153.857C529.676 154.697 530.916 155.713 531.717 156.904C532.537 158.076 532.947 159.512 532.947 161.211C532.947 164.043 531.814 166.318 529.549 168.037C527.283 169.736 524.344 170.586 520.73 170.586C518.191 170.586 515.945 170.137 513.992 169.238C512.039 168.34 510.506 167.09 509.393 165.488C508.299 163.867 507.752 162.119 507.752 160.244H513.172C513.27 162.061 513.992 163.506 515.34 164.58C516.707 165.635 518.504 166.162 520.73 166.162C522.781 166.162 524.422 165.752 525.652 164.932C526.902 164.092 527.527 162.979 527.527 161.592Z" fill="#FFCC29"/>
<path d="M216.125 198.145C213.607 199.212 212.673 198.03 210.741 200.522C209.241 202.76 205.906 215.065 200.267 216.206L182.433 225L170.802 222.587C169.314 221.988 170.802 222.587 166.336 220.791L164.88 216.243C164.604 212.109 173.654 213.749 164.064 200.142C158.884 197.039 153.704 186.523 150.464 178.066C149.624 172.322 155.228 155.444 153.681 157.244L151.727 152.894L143.701 148.235L139.804 142.944C139.417 141.455 140.832 137.167 140.445 135.678L142.846 133.953C136.978 131.011 139.628 128.29 143.339 125.983L138.883 121.599C136.987 120.476 135.425 121.733 133.251 120.276C131.235 118.925 129.942 119.395 128.69 118.186L127.882 116.896C127.678 120.16 125.429 119.68 123.983 119.831C121.179 120.125 118.175 118.251 116.418 118.802L109.465 118.393C107.081 118.253 106.248 123.673 103.864 123.532C102.148 127.456 97.5917 126.524 96.0063 126.245C92.9144 125.702 93.7338 129.076 91.0113 128.137C88.7269 125.453 77.7861 128.836 74.615 125.29C72.4739 122.895 68.3947 121.372 66.5392 118.722C63.7238 114.701 51.8772 95.8483 51.5016 91.5418C51.3167 89.4216 51.148 89.497 51.0022 86.1514C50.8888 83.5512 55.2709 80.3821 52.5407 81.0996C50.3554 81.674 59.3867 76.2867 57.6763 68.8839C57.2441 67.0133 52.2326 66.7891 57.2193 64.4079C56.752 62.9992 58.0647 55.2825 58.7876 56.3674C59.4459 57.3556 59.9242 54.5921 63.3894 51.9791C65.5016 50.3863 60.7556 50.2694 63.2351 49.153C65.2432 48.2489 67.6384 44.4526 69.1938 42.298C70.9868 39.8138 73.6673 36.3934 75.7945 35.7843C77.3538 35.0882 78.9623 34.0682 80.611 34.338C83.7388 34.8497 86.9614 36.8389 90.0685 32.8796C91.3905 32.5834 92.723 32.237 93.9874 31.6724L96.5306 32.3427L103.526 30.6938C105.641 30.1951 107.164 28.5435 109.279 28.0447L114.696 27.2466L122.804 27C124.02 27.1691 124.355 30.2034 125.571 30.3728L130.719 30.2294C131.018 30.2645 135.683 30.6082 133.168 31.2611C134.151 31.4354 135.188 31.0817 136.194 30.8153C136.858 30.6397 138.879 28.7803 139.479 28.93C139.675 28.9789 138.708 30.693 139.167 30.7577C139.98 30.8721 139.785 30.8919 140.331 30.9015L139.532 34.8709C139.995 35.3816 136.98 37.401 142.197 37.8089L142.853 38.8845C143.137 39.5505 145.75 39.4955 146.034 40.1616C147.248 40.4372 142.664 43.0443 148.907 43.0892C155.149 43.1342 154.386 46.4661 155.947 46.6843C160.513 47.3232 162.969 48.318 165.087 48.8117C167.206 49.3054 169.316 49.2678 169.805 46.7022C169.42 46.0703 169.372 45.1162 168.987 44.4845L167.227 44.036L167.725 39.8047C168.444 38.8608 170.435 39.1649 171.834 39.2502L176.194 41.9477C177.046 42.1285 178.076 40.6443 178.928 40.8253L181.837 41.4504C186.652 44.6056 191.079 43.4368 195.7 44.4299L197.835 44.196C199.091 45.6265 199.603 49.2702 199.824 49.8764L198.349 51.9233C197.892 52.0001 197.546 49.8476 197.089 49.9245C195.817 50.7553 193.482 47.5545 192.015 47.15L196.013 50.9628C196.775 51.5552 197.149 53.8466 197.911 54.4394L199.683 57.72L202.165 59.0718C202.853 59.6717 202.62 61.4562 203.309 62.0561L206.587 64.9234C207.258 65.7149 208.012 66.2438 208.358 67.7895C208.717 69.3955 209.348 70.3072 210.61 70.434C211.235 70.4968 210.777 71.4094 211.429 71.9713C212.375 72.7871 213.949 73.4338 214.129 74.4257C214.75 77.8279 216.804 77.1509 217.52 78.24C219.419 81.1296 220.224 82.2411 222.291 83.9661C222.619 84.2401 224.513 84.073 224.662 84.512C224.754 84.7812 224.561 85.2267 224.703 85.4633C224.842 85.695 223.774 86.6334 223.903 86.8731L225.224 89.3215C225.355 89.565 225.706 88.2928 225.806 87.5713L227.18 88.2936L228.278 87.7915C228.653 87.3997 229.532 86.9759 229.907 86.5844L231.565 85.0529C231.807 84.9121 233.794 83.69 234.035 83.5493C234.851 83.995 238.34 84.7331 238.901 84.5202C255.39 78.2609 240.552 87.6192 261.024 78.7696C261.228 81.6144 254.556 97.2051 254.394 96.5181L242.603 111.62L238.335 117.489" stroke="#373435" stroke-width="3.5278" stroke-miterlimit="22.9256"/>
<path fill-rule="evenodd" clip-rule="evenodd" d="M273.135 185.579L273.396 187.615L273.514 189.004C272.982 189.961 272.92 189.482 272.771 189.296C272.201 188.59 271.82 188.888 271.905 189.625C271.869 190.424 271.065 191.744 271.569 192.362L271.772 192.613L271.746 193.203C271.67 193.552 271.17 193.969 271.521 194.232C270.916 195.117 271.188 195.755 271.027 196.475C270.915 196.974 270.429 197.703 270.32 198.177C270.232 198.56 270.52 198.693 270.434 199.06C270.373 199.318 270.313 199.572 270.252 199.822C270.145 200.269 269.57 200.863 269.463 201.286C268.436 203.543 267.95 205.388 267.896 206.773C267.651 207.405 267.002 208.071 266.792 208.594C266.559 209.173 266.896 209.685 266.547 210.069C265.472 211.253 264.6 212.048 264.149 212.806C263.65 213.397 263.937 214.479 263.099 214.505C262.356 214.529 261.725 215.105 261.524 215.485C261.195 215.648 261.207 216.008 260.845 216.086C260.423 216.178 259.987 216.22 259.534 216.186C259.271 216.224 258.652 216.047 258.228 216.135C257.779 216.227 257.519 216.584 256.993 216.617C256.358 216.655 255.862 216.053 255.267 215.626C254.918 215.376 254.425 215.477 254.139 214.985C253.972 214.698 254.144 214.456 254.002 214.078L253.434 213.024C253.619 212.315 253.875 211.488 253.792 210.627C254.305 209.042 254.213 208.019 253.951 206.895C253.867 206.536 253.248 205.916 253.299 205.59C253.234 204.341 253.342 204.569 256.055 203.383C257.034 202.955 256.625 201.492 256.962 200.772C257.297 200.057 258.431 200.382 257.581 198.582C257.202 197.779 258.049 196.958 258.293 196.108C258.659 194.908 256.399 191.305 258.022 190.19C258.38 189.944 257.976 189.389 259.22 189.432C259.992 189.458 260.654 188.629 261.542 188.199C262.756 187.61 264.369 188.418 266.046 187.684C266.349 187.551 266.456 185.917 266.775 185.775C266.95 185.697 267.113 185.587 267.286 185.492C267.279 186.169 267.547 185.385 267.722 185.271C267.907 185.151 268.009 185.644 268.207 185.449C268.442 185.218 268.733 185.299 269.105 184.929C269.443 184.591 269.861 183.785 270.133 183.782C270.498 183.778 270.817 184.177 271.196 184.128C271.743 184.058 272.652 182.701 272.317 183.02C271.397 183.897 274.131 181.609 273.135 185.579V185.579Z" stroke="#373435" stroke-width="1.4111" stroke-miterlimit="22.9256"/>
<path fill-rule="evenodd" clip-rule="evenodd" d="M280.958 210.196L280.987 210.422L281 210.577C280.941 210.683 280.934 210.63 280.917 210.609C280.854 210.531 280.812 210.564 280.821 210.646C280.817 210.735 280.728 210.881 280.784 210.95L280.806 210.978L280.803 211.044C280.795 211.082 280.739 211.129 280.779 211.158C280.711 211.257 280.741 211.327 280.724 211.407C280.711 211.463 280.657 211.544 280.645 211.597C280.635 211.639 280.667 211.654 280.658 211.695C280.651 211.724 280.644 211.752 280.637 211.78C280.625 211.829 280.562 211.895 280.55 211.942C280.435 212.193 280.381 212.398 280.375 212.552C280.348 212.623 280.276 212.697 280.253 212.755C280.227 212.819 280.264 212.876 280.225 212.919C280.106 213.051 280.009 213.139 279.959 213.223C279.903 213.289 279.935 213.409 279.842 213.412C279.76 213.415 279.689 213.479 279.667 213.521C279.63 213.539 279.632 213.579 279.591 213.588C279.545 213.598 279.496 213.603 279.446 213.599C279.417 213.603 279.348 213.583 279.301 213.593C279.251 213.604 279.222 213.643 279.163 213.647C279.093 213.651 279.038 213.584 278.971 213.537C278.933 213.509 278.878 213.52 278.846 213.465C278.827 213.433 278.846 213.407 278.831 213.365L278.768 213.247C278.788 213.169 278.817 213.077 278.807 212.981C278.864 212.805 278.854 212.691 278.825 212.566C278.816 212.526 278.747 212.457 278.753 212.421C278.745 212.282 278.757 212.307 279.059 212.175C279.168 212.128 279.122 211.965 279.16 211.885C279.197 211.806 279.323 211.842 279.229 211.642C279.187 211.552 279.281 211.461 279.308 211.367C279.349 211.233 279.097 210.833 279.278 210.709C279.317 210.681 279.273 210.62 279.411 210.624C279.497 210.627 279.57 210.535 279.669 210.487C279.804 210.422 279.983 210.512 280.17 210.43C280.203 210.415 280.215 210.234 280.251 210.218C280.27 210.209 280.288 210.197 280.308 210.186C280.307 210.262 280.337 210.174 280.356 210.162C280.377 210.148 280.388 210.203 280.41 210.182C280.436 210.156 280.469 210.165 280.51 210.124C280.548 210.086 280.594 209.997 280.624 209.996C280.665 209.996 280.7 210.04 280.742 210.035C280.803 210.027 280.904 209.876 280.867 209.912C280.765 210.009 281.069 209.755 280.958 210.196V210.196Z" stroke="#373435" stroke-width="1.0583" stroke-miterlimit="22.9256"/>
<path fill-rule="evenodd" clip-rule="evenodd" d="M264.236 177.433L264.277 177.758L264.296 177.98C264.211 178.133 264.201 178.056 264.177 178.027C264.086 177.914 264.026 177.962 264.039 178.079C264.033 178.207 263.905 178.418 263.985 178.517L264.018 178.557L264.014 178.651C264.002 178.706 263.922 178.773 263.978 178.815C263.881 178.957 263.925 179.058 263.899 179.173C263.881 179.253 263.803 179.37 263.786 179.445C263.772 179.507 263.818 179.528 263.804 179.586C263.794 179.628 263.785 179.668 263.775 179.708C263.758 179.779 263.666 179.874 263.649 179.942C263.485 180.302 263.407 180.597 263.399 180.818C263.36 180.919 263.256 181.026 263.222 181.109C263.185 181.202 263.239 181.284 263.183 181.345C263.012 181.534 262.872 181.661 262.8 181.782C262.721 181.876 262.766 182.049 262.632 182.053C262.514 182.057 262.413 182.149 262.381 182.21C262.328 182.236 262.33 182.293 262.273 182.306C262.205 182.321 262.136 182.327 262.063 182.322C262.021 182.328 261.922 182.3 261.855 182.314C261.783 182.328 261.741 182.385 261.657 182.391C261.556 182.397 261.477 182.301 261.381 182.232C261.326 182.192 261.247 182.209 261.201 182.13C261.175 182.084 261.202 182.045 261.179 181.985L261.089 181.817C261.118 181.704 261.159 181.571 261.146 181.434C261.228 181.181 261.213 181.017 261.171 180.838C261.158 180.78 261.059 180.682 261.067 180.629C261.057 180.43 261.074 180.466 261.507 180.277C261.664 180.208 261.599 179.975 261.652 179.86C261.706 179.746 261.887 179.798 261.751 179.51C261.691 179.382 261.826 179.251 261.865 179.115C261.923 178.923 261.562 178.348 261.822 178.17C261.879 178.13 261.814 178.042 262.013 178.048C262.136 178.053 262.242 177.92 262.384 177.851C262.578 177.757 262.835 177.887 263.103 177.769C263.152 177.748 263.169 177.487 263.22 177.464C263.248 177.452 263.274 177.434 263.301 177.419C263.3 177.527 263.343 177.402 263.371 177.384C263.4 177.365 263.417 177.443 263.449 177.412C263.486 177.375 263.533 177.388 263.592 177.329C263.646 177.275 263.713 177.147 263.756 177.146C263.814 177.145 263.865 177.209 263.926 177.201C264.013 177.19 264.158 176.973 264.105 177.024C263.958 177.164 264.395 176.799 264.236 177.433V177.433Z" stroke="#373435" stroke-width="1.0583" stroke-miterlimit="22.9256"/>
<path d="M211.739 120.336C235.244 120.336 254.298 117.49 254.298 113.98C254.298 110.47 235.244 107.624 211.739 107.624C188.234 107.624 169.179 110.47 169.179 113.98C169.179 117.49 188.234 120.336 211.739 120.336Z" fill="#FFCC29"/>
<path d="M211.479 149.852C234.984 149.852 254.038 147.006 254.038 143.496C254.038 139.986 234.984 137.14 211.479 137.14C187.974 137.14 168.919 139.986 168.919 143.496C168.919 147.006 187.974 149.852 211.479 149.852Z" fill="#FFCC29"/>
<path d="M211.748 134.611C235.253 134.611 254.308 131.765 254.308 128.255C254.308 124.745 235.253 121.9 211.748 121.9C188.243 121.9 169.189 124.745 169.189 128.255C169.189 131.765 188.243 134.611 211.748 134.611Z" fill="#FFCC29"/>
<path d="M211.687 165.014C235.192 165.014 254.246 162.169 254.246 158.658C254.246 155.148 235.192 152.303 211.687 152.303C188.182 152.303 169.127 155.148 169.127 158.658C169.127 162.169 188.182 165.014 211.687 165.014Z" fill="#FFCC29"/>
<path d="M211.868 193.781C235.373 193.781 254.427 190.936 254.427 187.426C254.427 183.916 235.373 181.07 211.868 181.07C188.363 181.07 169.308 183.916 169.308 187.426C169.308 190.936 188.363 193.781 211.868 193.781Z" fill="#FFCC29"/>
<path d="M211.696 179.289C235.201 179.289 254.255 176.444 254.255 172.934C254.255 169.423 235.201 166.578 211.696 166.578C188.191 166.578 169.136 169.423 169.136 172.934C169.136 176.444 188.191 179.289 211.696 179.289Z" fill="#FFCC29"/>
<path d="M211.856 207.975C235.36 207.975 254.415 205.13 254.415 201.62C254.415 198.109 235.36 195.264 211.856 195.264C188.351 195.264 169.296 198.109 169.296 201.62C169.296 205.13 188.351 207.975 211.856 207.975Z" fill="#FFCC29"/>
</svg>
