<svg width="393" height="454" viewBox="0 0 393 454" fill="none" xmlns="http://www.w3.org/2000/svg">
<rect x="1.52022" y="-1.48756" width="419.178" height="7.83774" transform="matrix(0.0135158 -0.999909 0.999966 0.00820143 180.071 422.184)" fill="#C4C4C4" stroke="#C4C4C4" stroke-width="3"/>
<path d="M355.5 195.404C355.5 288.553 277.564 364.404 181 364.404C84.4358 364.404 6.5 288.553 6.5 195.404C6.5 102.256 84.4358 26.4042 181 26.4042C277.564 26.4042 355.5 102.256 355.5 195.404Z" fill="white" stroke="#C4C4C4" stroke-width="13"/>
<path d="M276.681 432.065C276.682 432.065 276.678 432.072 276.669 432.085C276.676 432.072 276.681 432.065 276.681 432.065ZM271.913 430.616C273.791 431.496 275.043 432.283 275.823 432.904C275.043 433.526 273.791 434.312 271.913 435.192C267.243 437.38 260.071 439.519 250.69 441.377C232.036 445.073 205.98 447.404 177 447.404C148.02 447.404 121.964 445.073 103.31 441.377C93.9294 439.519 86.7575 437.38 82.0871 435.192C80.2085 434.312 78.9567 433.526 78.1772 432.904C78.9567 432.283 80.2085 431.496 82.0871 430.616C86.7575 428.429 93.9294 426.289 103.31 424.431C121.964 420.735 148.02 418.404 177 418.404C205.98 418.404 232.036 420.735 250.69 424.431C260.071 426.289 267.243 428.429 271.913 430.616ZM77.3186 432.065C77.319 432.065 77.3236 432.072 77.331 432.085C77.3219 432.072 77.3181 432.065 77.3186 432.065ZM77.3186 433.743C77.3181 433.743 77.3219 433.737 77.331 433.723C77.3236 433.736 77.319 433.743 77.3186 433.743ZM276.669 433.723C276.678 433.737 276.682 433.743 276.681 433.743C276.681 433.743 276.676 433.736 276.669 433.723Z" fill="#C4C4C4" stroke="#C4C4C4" stroke-width="13"/>
<path d="M223.202 287.778C220.881 288.856 220.021 287.662 218.24 290.179C216.857 292.44 213.783 304.869 208.586 306.022L192.147 314.904L181.426 312.467C180.054 311.862 181.426 312.467 177.31 310.652L175.968 306.059C175.713 301.883 184.055 303.539 175.216 289.795C170.441 286.661 165.666 276.038 162.679 267.496C161.905 261.694 167.071 244.646 165.645 246.464L163.844 242.07L156.446 237.364L152.854 232.019C152.498 230.516 153.801 226.184 153.445 224.68L155.658 222.937C150.249 219.965 152.692 217.218 156.113 214.887L152.005 210.459C150.258 209.324 148.818 210.594 146.814 209.122C144.956 207.758 143.764 208.232 142.609 207.012L141.865 205.708C141.677 209.005 139.604 208.52 138.271 208.673C135.686 208.97 132.918 207.077 131.299 207.634L124.889 207.22C122.692 207.079 121.924 212.553 119.727 212.411C118.145 216.375 113.945 215.434 112.484 215.152C109.634 214.603 110.389 218.011 107.88 217.062C105.774 214.352 95.6898 217.769 92.7669 214.186C90.7934 211.767 87.0334 210.23 85.3231 207.552C82.728 203.491 71.8085 184.448 71.4623 180.098C71.2919 177.956 71.1364 178.032 71.002 174.653C70.8975 172.027 74.9366 168.825 72.4201 169.55C70.4058 170.13 78.7303 164.689 77.1539 157.211C76.7554 155.322 72.1361 155.095 76.7325 152.69C76.3019 151.267 77.5119 143.472 78.1782 144.568C78.7849 145.566 79.2258 142.775 82.4198 140.136C84.3667 138.527 79.9922 138.409 82.2776 137.281C84.1285 136.368 86.3362 132.533 87.7699 130.357C89.4226 127.847 91.8933 124.392 93.8541 123.777C95.2913 123.074 96.7739 122.044 98.2936 122.316C101.177 122.833 104.147 124.842 107.011 120.843C108.23 120.544 109.458 120.194 110.623 119.624L112.967 120.301L119.415 118.635C121.365 118.132 122.769 116.463 124.718 115.959L129.711 115.153L137.184 114.904C138.305 115.075 138.614 118.14 139.735 118.311L144.48 118.166C144.756 118.202 149.055 118.549 146.738 119.208C147.643 119.384 148.599 119.027 149.527 118.758C150.138 118.581 152.001 116.702 152.554 116.854C152.736 116.903 151.844 118.634 152.267 118.7C153.017 118.815 152.837 118.835 153.34 118.845L152.603 122.855C153.03 123.37 150.251 125.41 155.06 125.822L155.665 126.909C155.926 127.581 158.334 127.526 158.596 128.199C159.715 128.477 155.49 131.111 161.244 131.156C166.998 131.201 166.295 134.567 167.734 134.787C171.942 135.433 174.207 136.437 176.159 136.936C178.111 137.435 180.056 137.397 180.507 134.805C180.152 134.167 180.108 133.203 179.753 132.565L178.131 132.112L178.59 127.838C179.253 126.885 181.088 127.192 182.377 127.278L186.396 130.003C187.182 130.185 188.131 128.686 188.916 128.869L191.597 129.501C196.036 132.688 200.116 131.507 204.375 132.51L206.344 132.274C207.501 133.719 207.974 137.399 208.177 138.012L206.817 140.079C206.396 140.157 206.077 137.983 205.656 138.06C204.484 138.899 202.331 135.666 200.979 135.258L204.664 139.109C205.366 139.707 205.711 142.022 206.413 142.621L208.047 145.934L210.334 147.3C210.969 147.906 210.754 149.708 211.389 150.314L214.41 153.211C215.029 154.01 215.724 154.544 216.043 156.106C216.374 157.728 216.956 158.649 218.118 158.777C218.695 158.84 218.273 159.762 218.873 160.33C219.745 161.154 221.196 161.807 221.363 162.809C221.935 166.246 223.828 165.562 224.488 166.662C226.239 169.581 226.981 170.703 228.885 172.446C229.188 172.722 230.934 172.554 231.071 172.997C231.156 173.269 230.978 173.719 231.109 173.958C231.237 174.192 230.253 175.14 230.372 175.382L231.589 177.855C231.71 178.101 232.034 176.816 232.125 176.087L233.392 176.817L234.404 176.31C234.75 175.914 235.56 175.486 235.905 175.09L237.434 173.543C237.657 173.401 239.488 172.167 239.711 172.025C240.463 172.475 243.678 173.22 244.196 173.005C259.394 166.683 245.718 176.136 264.587 167.197C264.776 170.07 258.626 185.818 258.476 185.124L247.608 200.379L243.674 206.307" stroke="#373435" stroke-width="3.5278" stroke-miterlimit="22.9256"/>
<path fill-rule="evenodd" clip-rule="evenodd" d="M275.751 275.085L275.991 277.141L276.1 278.544C275.61 279.511 275.553 279.027 275.415 278.839C274.89 278.126 274.538 278.428 274.617 279.172C274.584 279.978 273.843 281.313 274.307 281.937L274.494 282.19L274.47 282.786C274.4 283.138 273.939 283.559 274.263 283.825C273.706 284.72 273.956 285.363 273.807 286.091C273.704 286.595 273.256 287.331 273.156 287.81C273.075 288.197 273.34 288.331 273.261 288.702C273.205 288.963 273.149 289.219 273.094 289.472C272.994 289.923 272.465 290.523 272.366 290.95C271.419 293.231 270.971 295.093 270.921 296.493C270.696 297.132 270.098 297.804 269.904 298.332C269.689 298.917 270 299.435 269.678 299.823C268.687 301.018 267.884 301.821 267.467 302.587C267.008 303.183 267.273 304.277 266.5 304.303C265.815 304.327 265.233 304.909 265.049 305.293C264.745 305.458 264.756 305.821 264.423 305.9C264.033 305.993 263.632 306.035 263.214 306.001C262.972 306.04 262.401 305.861 262.01 305.949C261.597 306.043 261.357 306.404 260.871 306.436C260.287 306.475 259.83 305.867 259.281 305.435C258.959 305.182 258.505 305.285 258.241 304.788C258.087 304.498 258.246 304.253 258.114 303.872L257.592 302.807C257.762 302.09 257.998 301.256 257.922 300.386C258.394 298.785 258.31 297.752 258.068 296.616C257.991 296.253 257.42 295.628 257.467 295.298C257.407 294.036 257.506 294.267 260.007 293.069C260.91 292.636 260.533 291.158 260.844 290.431C261.152 289.71 262.198 290.037 261.413 288.219C261.064 287.408 261.845 286.579 262.07 285.72C262.408 284.508 260.324 280.869 261.82 279.743C262.15 279.494 261.778 278.933 262.924 278.976C263.636 279.003 264.247 278.166 265.065 277.731C266.184 277.136 267.67 277.953 269.216 277.211C269.496 277.077 269.595 275.427 269.888 275.283C270.05 275.204 270.2 275.093 270.36 274.997C270.353 275.681 270.6 274.889 270.761 274.774C270.932 274.653 271.026 275.15 271.209 274.954C271.425 274.721 271.694 274.802 272.036 274.428C272.348 274.087 272.732 273.273 272.984 273.27C273.32 273.266 273.614 273.668 273.964 273.619C274.467 273.548 275.305 272.178 274.997 272.5C274.149 273.386 276.669 271.074 275.751 275.085V275.085Z" stroke="#373435" stroke-width="1.4111" stroke-miterlimit="22.9256"/>
<path fill-rule="evenodd" clip-rule="evenodd" d="M282.961 299.951L282.988 300.179L283 300.335C282.946 300.443 282.939 300.389 282.924 300.368C282.865 300.289 282.826 300.322 282.835 300.405C282.832 300.495 282.749 300.643 282.801 300.712L282.822 300.741L282.819 300.807C282.811 300.846 282.76 300.893 282.796 300.922C282.734 301.022 282.762 301.093 282.745 301.174C282.734 301.23 282.684 301.312 282.673 301.365C282.664 301.408 282.693 301.423 282.684 301.465C282.678 301.494 282.672 301.522 282.666 301.55C282.655 301.6 282.596 301.667 282.585 301.715C282.48 301.968 282.43 302.175 282.424 302.331C282.399 302.402 282.333 302.477 282.311 302.535C282.287 302.6 282.322 302.658 282.286 302.701C282.176 302.834 282.087 302.923 282.04 303.008C281.989 303.075 282.019 303.196 281.933 303.199C281.857 303.202 281.792 303.266 281.771 303.309C281.738 303.328 281.739 303.368 281.702 303.377C281.658 303.387 281.614 303.392 281.567 303.388C281.54 303.392 281.477 303.372 281.434 303.382C281.388 303.393 281.361 303.433 281.307 303.436C281.242 303.441 281.191 303.373 281.13 303.325C281.094 303.297 281.044 303.308 281.014 303.253C280.997 303.221 281.015 303.194 281.001 303.151L280.942 303.033C280.961 302.953 280.987 302.86 280.979 302.764C281.032 302.586 281.022 302.471 280.995 302.344C280.987 302.304 280.923 302.235 280.928 302.198C280.922 302.058 280.933 302.083 281.211 301.95C281.311 301.902 281.269 301.738 281.304 301.657C281.338 301.577 281.454 301.613 281.367 301.411C281.328 301.321 281.415 301.229 281.44 301.133C281.478 300.998 281.246 300.594 281.412 300.469C281.449 300.441 281.408 300.378 281.535 300.383C281.614 300.386 281.682 300.293 281.773 300.245C281.898 300.179 282.063 300.269 282.235 300.187C282.266 300.172 282.277 299.989 282.309 299.973C282.327 299.964 282.344 299.951 282.362 299.941C282.361 300.017 282.389 299.929 282.407 299.916C282.425 299.903 282.436 299.958 282.456 299.936C282.48 299.91 282.51 299.919 282.548 299.878C282.583 299.84 282.626 299.749 282.654 299.749C282.691 299.748 282.724 299.793 282.763 299.788C282.819 299.78 282.912 299.627 282.877 299.663C282.783 299.762 283.063 299.505 282.961 299.951V299.951Z" stroke="#373435" stroke-width="1.0583" stroke-miterlimit="22.9256"/>
<path fill-rule="evenodd" clip-rule="evenodd" d="M267.548 266.857L267.586 267.185L267.603 267.409C267.525 267.564 267.516 267.486 267.494 267.456C267.41 267.343 267.354 267.391 267.366 267.51C267.361 267.638 267.243 267.852 267.317 267.951L267.347 267.992L267.343 268.087C267.332 268.143 267.258 268.21 267.31 268.253C267.221 268.396 267.261 268.499 267.237 268.615C267.221 268.695 267.149 268.813 267.133 268.889C267.12 268.951 267.163 268.973 267.15 269.032C267.141 269.073 267.132 269.114 267.123 269.155C267.107 269.227 267.023 269.323 267.007 269.391C266.856 269.755 266.784 270.053 266.776 270.276C266.74 270.378 266.645 270.486 266.614 270.57C266.579 270.664 266.629 270.746 266.578 270.808C266.419 270.999 266.291 271.127 266.224 271.25C266.151 271.345 266.193 271.52 266.07 271.524C265.961 271.528 265.868 271.62 265.838 271.682C265.79 271.708 265.792 271.766 265.738 271.779C265.676 271.794 265.612 271.801 265.545 271.795C265.506 271.801 265.415 271.773 265.353 271.787C265.287 271.802 265.248 271.859 265.171 271.864C265.078 271.871 265.005 271.774 264.917 271.705C264.865 271.664 264.793 271.681 264.751 271.601C264.726 271.555 264.752 271.516 264.731 271.455L264.647 271.285C264.674 271.17 264.712 271.037 264.7 270.898C264.775 270.642 264.762 270.477 264.723 270.296C264.711 270.238 264.62 270.138 264.627 270.085C264.618 269.884 264.633 269.921 265.033 269.729C265.177 269.66 265.117 269.424 265.167 269.308C265.216 269.193 265.383 269.245 265.258 268.955C265.202 268.825 265.326 268.693 265.362 268.556C265.416 268.362 265.083 267.781 265.322 267.601C265.375 267.561 265.316 267.471 265.499 267.478C265.613 267.483 265.71 267.349 265.841 267.279C266.019 267.184 266.257 267.315 266.504 267.196C266.549 267.175 266.564 266.911 266.611 266.888C266.637 266.876 266.661 266.858 266.686 266.843C266.685 266.952 266.725 266.825 266.751 266.807C266.778 266.788 266.793 266.867 266.822 266.836C266.857 266.799 266.9 266.812 266.954 266.752C267.004 266.697 267.065 266.567 267.106 266.567C267.159 266.566 267.206 266.63 267.262 266.623C267.343 266.611 267.476 266.392 267.427 266.444C267.292 266.585 267.694 266.216 267.548 266.857V266.857Z" stroke="#373435" stroke-width="1.0583" stroke-miterlimit="22.9256"/>
<path d="M219.159 209.183C240.825 209.183 258.388 206.308 258.388 202.763C258.388 199.217 240.825 196.343 219.159 196.343C197.494 196.343 179.931 199.217 179.931 202.763C179.931 206.308 197.494 209.183 219.159 209.183Z" fill="#FFCC29"/>
<path d="M218.92 238.997C240.585 238.997 258.148 236.123 258.148 232.577C258.148 229.031 240.585 226.157 218.92 226.157C197.254 226.157 179.691 229.031 179.691 232.577C179.691 236.123 197.254 238.997 218.92 238.997Z" fill="#FFCC29"/>
<path d="M219.168 223.602C240.833 223.602 258.397 220.728 258.397 217.182C258.397 213.637 240.833 210.762 219.168 210.762C197.502 210.762 179.939 213.637 179.939 217.182C179.939 220.728 197.502 223.602 219.168 223.602Z" fill="#FFCC29"/>
<path d="M219.111 254.312C240.777 254.312 258.34 251.438 258.34 247.892C258.34 244.347 240.777 241.472 219.111 241.472C197.446 241.472 179.882 244.347 179.882 247.892C179.882 251.438 197.446 254.312 219.111 254.312Z" fill="#FFCC29"/>
<path d="M219.278 283.37C240.944 283.37 258.507 280.496 258.507 276.95C258.507 273.405 240.944 270.53 219.278 270.53C197.613 270.53 180.049 273.405 180.049 276.95C180.049 280.496 197.613 283.37 219.278 283.37Z" fill="#FFCC29"/>
<path d="M219.119 268.732C240.785 268.732 258.348 265.857 258.348 262.312C258.348 258.766 240.785 255.892 219.119 255.892C197.454 255.892 179.891 258.766 179.891 262.312C179.891 265.857 197.454 268.732 219.119 268.732Z" fill="#FFCC29"/>
<path d="M219.267 297.707C240.932 297.707 258.496 294.833 258.496 291.287C258.496 287.742 240.932 284.867 219.267 284.867C197.601 284.867 180.038 287.742 180.038 291.287C180.038 294.833 197.601 297.707 219.267 297.707Z" fill="#FFCC29"/>
<path d="M393 189.404C393 290.748 298.532 392.904 182 392.904C283.363 365.072 393 290.748 393 189.404C393 88.0599 283.363 28.4256 182 5.90417C298.532 5.90417 393 88.0599 393 189.404Z" fill="#C4C4C4"/>
</svg>
