<svg width="627" height="235" viewBox="0 0 627 235" fill="none" xmlns="http://www.w3.org/2000/svg">
<rect width="300" height="235" fill="white"/>
<rect x="300" width="327" height="235" fill="white"/>
<path d="M342.576 83.3008V100H336.951V57.3438H352.684C357.352 57.3438 361.004 58.5352 363.641 60.918C366.297 63.3008 367.625 66.4551 367.625 70.3809C367.625 74.5215 366.326 77.7148 363.729 79.9609C361.15 82.1875 357.449 83.3008 352.625 83.3008H342.576ZM342.576 78.7012H352.684C355.691 78.7012 357.996 77.998 359.598 76.5918C361.199 75.166 362 73.1152 362 70.4395C362 67.9004 361.199 65.8691 359.598 64.3457C357.996 62.8223 355.799 62.0312 353.006 61.9727H342.576V78.7012ZM379.373 72.1387C381.775 69.1895 384.9 67.7148 388.748 67.7148C395.447 67.7148 398.826 71.4941 398.885 79.0527V100H393.465V79.0234C393.445 76.7383 392.918 75.0488 391.883 73.9551C390.867 72.8613 389.275 72.3145 387.107 72.3145C385.35 72.3145 383.807 72.7832 382.479 73.7207C381.15 74.6582 380.115 75.8887 379.373 77.4121V100H373.953V55H379.373V72.1387ZM405.564 83.8574C405.564 80.752 406.17 77.959 407.381 75.4785C408.611 72.998 410.311 71.084 412.479 69.7363C414.666 68.3887 417.156 67.7148 419.949 67.7148C424.266 67.7148 427.752 69.209 430.408 72.1973C433.084 75.1855 434.422 79.1602 434.422 84.1211V84.502C434.422 87.5879 433.826 90.3613 432.635 92.8223C431.463 95.2637 429.773 97.168 427.566 98.5352C425.379 99.9023 422.859 100.586 420.008 100.586C415.711 100.586 412.225 99.0918 409.549 96.1035C406.893 93.1152 405.564 89.1602 405.564 84.2383V83.8574ZM411.014 84.502C411.014 88.0176 411.824 90.8398 413.445 92.9688C415.086 95.0977 417.273 96.1621 420.008 96.1621C422.762 96.1621 424.949 95.0879 426.57 92.9395C428.191 90.7715 429.002 87.7441 429.002 83.8574C429.002 80.3809 428.172 77.5684 426.512 75.4199C424.871 73.252 422.684 72.168 419.949 72.168C417.273 72.168 415.115 73.2324 413.475 75.3613C411.834 77.4902 411.014 80.5371 411.014 84.502ZM448.572 60.625V68.3008H454.49V72.4902H448.572V92.1484C448.572 93.418 448.836 94.375 449.363 95.0195C449.891 95.6445 450.789 95.957 452.059 95.957C452.684 95.957 453.543 95.8398 454.637 95.6055V100C453.211 100.391 451.824 100.586 450.477 100.586C448.055 100.586 446.229 99.8535 444.998 98.3887C443.768 96.9238 443.152 94.8438 443.152 92.1484V72.4902H437.381V68.3008H443.152V60.625H448.572ZM458.826 83.8574C458.826 80.752 459.432 77.959 460.643 75.4785C461.873 72.998 463.572 71.084 465.74 69.7363C467.928 68.3887 470.418 67.7148 473.211 67.7148C477.527 67.7148 481.014 69.209 483.67 72.1973C486.346 75.1855 487.684 79.1602 487.684 84.1211V84.502C487.684 87.5879 487.088 90.3613 485.896 92.8223C484.725 95.2637 483.035 97.168 480.828 98.5352C478.641 99.9023 476.121 100.586 473.27 100.586C468.973 100.586 465.486 99.0918 462.811 96.1035C460.154 93.1152 458.826 89.1602 458.826 84.2383V83.8574ZM464.275 84.502C464.275 88.0176 465.086 90.8398 466.707 92.9688C468.348 95.0977 470.535 96.1621 473.27 96.1621C476.023 96.1621 478.211 95.0879 479.832 92.9395C481.453 90.7715 482.264 87.7441 482.264 83.8574C482.264 80.3809 481.434 77.5684 479.773 75.4199C478.133 73.252 475.945 72.168 473.211 72.168C470.535 72.168 468.377 73.2324 466.736 75.3613C465.096 77.4902 464.275 80.5371 464.275 84.502Z" fill="#FFCC29"/>
<path d="M349.52 150.986C344.695 149.6 341.18 147.9 338.973 145.889C336.785 143.857 335.691 141.357 335.691 138.389C335.691 135.029 337.029 132.256 339.705 130.068C342.4 127.861 345.896 126.758 350.193 126.758C353.123 126.758 355.73 127.324 358.016 128.457C360.32 129.59 362.098 131.152 363.348 133.145C364.617 135.137 365.252 137.314 365.252 139.678H359.598C359.598 137.1 358.777 135.078 357.137 133.613C355.496 132.129 353.182 131.387 350.193 131.387C347.42 131.387 345.252 132.002 343.689 133.232C342.146 134.443 341.375 136.133 341.375 138.301C341.375 140.039 342.107 141.514 343.572 142.725C345.057 143.916 347.566 145.01 351.102 146.006C354.656 147.002 357.43 148.105 359.422 149.316C361.434 150.508 362.918 151.904 363.875 153.506C364.852 155.107 365.34 156.992 365.34 159.16C365.34 162.617 363.992 165.391 361.297 167.48C358.602 169.551 354.998 170.586 350.486 170.586C347.557 170.586 344.822 170.029 342.283 168.916C339.744 167.783 337.781 166.24 336.395 164.287C335.027 162.334 334.344 160.117 334.344 157.637H339.998C339.998 160.215 340.945 162.256 342.84 163.76C344.754 165.244 347.303 165.986 350.486 165.986C353.455 165.986 355.73 165.381 357.312 164.17C358.895 162.959 359.686 161.309 359.686 159.219C359.686 157.129 358.953 155.518 357.488 154.385C356.023 153.232 353.367 152.1 349.52 150.986ZM379.08 130.625V138.301H384.998V142.49H379.08V162.148C379.08 163.418 379.344 164.375 379.871 165.02C380.398 165.645 381.297 165.957 382.566 165.957C383.191 165.957 384.051 165.84 385.145 165.605V170C383.719 170.391 382.332 170.586 380.984 170.586C378.562 170.586 376.736 169.854 375.506 168.389C374.275 166.924 373.66 164.844 373.66 162.148V142.49H367.889V138.301H373.66V130.625H379.08ZM389.334 153.857C389.334 150.752 389.939 147.959 391.15 145.479C392.381 142.998 394.08 141.084 396.248 139.736C398.436 138.389 400.926 137.715 403.719 137.715C408.035 137.715 411.521 139.209 414.178 142.197C416.854 145.186 418.191 149.16 418.191 154.121V154.502C418.191 157.588 417.596 160.361 416.404 162.822C415.232 165.264 413.543 167.168 411.336 168.535C409.148 169.902 406.629 170.586 403.777 170.586C399.48 170.586 395.994 169.092 393.318 166.104C390.662 163.115 389.334 159.16 389.334 154.238V153.857ZM394.783 154.502C394.783 158.018 395.594 160.84 397.215 162.969C398.855 165.098 401.043 166.162 403.777 166.162C406.531 166.162 408.719 165.088 410.34 162.939C411.961 160.771 412.771 157.744 412.771 153.857C412.771 150.381 411.941 147.568 410.281 145.42C408.641 143.252 406.453 142.168 403.719 142.168C401.043 142.168 398.885 143.232 397.244 145.361C395.604 147.49 394.783 150.537 394.783 154.502ZM440.311 143.164C439.49 143.027 438.602 142.959 437.645 142.959C434.09 142.959 431.678 144.473 430.408 147.5V170H424.988V138.301H430.262L430.35 141.963C432.127 139.131 434.646 137.715 437.908 137.715C438.963 137.715 439.764 137.852 440.311 138.125V143.164ZM456.219 162.061L463.602 138.301H469.402L456.658 174.893C454.686 180.166 451.551 182.803 447.254 182.803L446.229 182.715L444.207 182.334V177.939L445.672 178.057C447.508 178.057 448.934 177.686 449.949 176.943C450.984 176.201 451.834 174.844 452.498 172.871L453.699 169.648L442.391 138.301H448.309L456.219 162.061Z" fill="black"/>
<path d="M216.125 198.145C213.607 199.212 212.673 198.03 210.741 200.522C209.241 202.76 205.906 215.065 200.267 216.206L182.433 225L170.802 222.587C169.314 221.988 170.802 222.587 166.336 220.791L164.88 216.243C164.604 212.109 173.654 213.749 164.064 200.142C158.884 197.039 153.704 186.523 150.464 178.066C149.624 172.322 155.228 155.444 153.681 157.244L151.727 152.894L143.701 148.235L139.804 142.944C139.417 141.455 140.832 137.167 140.445 135.678L142.846 133.953C136.978 131.011 139.628 128.29 143.339 125.983L138.883 121.599C136.987 120.476 135.425 121.733 133.251 120.276C131.235 118.925 129.942 119.395 128.69 118.186L127.882 116.896C127.678 120.16 125.429 119.68 123.983 119.831C121.179 120.125 118.175 118.251 116.418 118.802L109.465 118.393C107.081 118.253 106.248 123.673 103.864 123.532C102.148 127.456 97.5917 126.524 96.0063 126.245C92.9144 125.702 93.7338 129.076 91.0113 128.137C88.7269 125.453 77.7861 128.836 74.615 125.29C72.4739 122.895 68.3947 121.372 66.5392 118.722C63.7238 114.701 51.8772 95.8483 51.5016 91.5418C51.3167 89.4216 51.148 89.497 51.0022 86.1514C50.8888 83.5512 55.2709 80.3821 52.5407 81.0996C50.3554 81.674 59.3867 76.2867 57.6763 68.8839C57.2441 67.0133 52.2326 66.7891 57.2193 64.4079C56.752 62.9992 58.0647 55.2825 58.7876 56.3674C59.4459 57.3556 59.9242 54.5921 63.3894 51.9791C65.5016 50.3863 60.7556 50.2694 63.2351 49.153C65.2432 48.2489 67.6384 44.4526 69.1938 42.298C70.9868 39.8138 73.6673 36.3934 75.7945 35.7843C77.3538 35.0882 78.9623 34.0682 80.611 34.338C83.7388 34.8497 86.9614 36.8389 90.0685 32.8796C91.3905 32.5834 92.723 32.237 93.9874 31.6724L96.5306 32.3427L103.526 30.6938C105.641 30.1951 107.164 28.5435 109.279 28.0447L114.696 27.2466L122.804 27C124.02 27.1691 124.355 30.2034 125.571 30.3728L130.719 30.2294C131.018 30.2645 135.683 30.6082 133.168 31.2611C134.151 31.4354 135.188 31.0817 136.194 30.8153C136.858 30.6397 138.879 28.7803 139.479 28.93C139.675 28.9789 138.708 30.693 139.167 30.7577C139.98 30.8721 139.785 30.8919 140.331 30.9015L139.532 34.8709C139.995 35.3816 136.98 37.401 142.197 37.8089L142.853 38.8845C143.137 39.5505 145.75 39.4955 146.034 40.1616C147.248 40.4372 142.664 43.0443 148.907 43.0892C155.149 43.1342 154.386 46.4661 155.947 46.6843C160.513 47.3232 162.969 48.318 165.087 48.8117C167.206 49.3054 169.316 49.2678 169.805 46.7022C169.42 46.0703 169.372 45.1162 168.987 44.4845L167.227 44.036L167.725 39.8047C168.444 38.8608 170.435 39.1649 171.834 39.2502L176.194 41.9477C177.046 42.1285 178.076 40.6443 178.928 40.8253L181.837 41.4504C186.652 44.6056 191.079 43.4368 195.7 44.4299L197.835 44.196C199.091 45.6265 199.603 49.2702 199.824 49.8764L198.349 51.9233C197.892 52.0001 197.546 49.8476 197.089 49.9245C195.817 50.7553 193.482 47.5545 192.015 47.15L196.013 50.9628C196.775 51.5552 197.149 53.8466 197.911 54.4394L199.683 57.72L202.165 59.0718C202.853 59.6717 202.62 61.4562 203.309 62.0561L206.587 64.9234C207.258 65.7149 208.012 66.2438 208.358 67.7895C208.717 69.3955 209.348 70.3072 210.61 70.434C211.235 70.4968 210.777 71.4094 211.429 71.9713C212.375 72.7871 213.949 73.4338 214.129 74.4257C214.75 77.8279 216.804 77.1509 217.52 78.24C219.419 81.1296 220.224 82.2411 222.291 83.9661C222.619 84.2401 224.513 84.073 224.662 84.512C224.754 84.7812 224.561 85.2267 224.703 85.4633C224.842 85.695 223.774 86.6334 223.903 86.8731L225.224 89.3215C225.355 89.565 225.706 88.2928 225.806 87.5713L227.18 88.2936L228.278 87.7915C228.653 87.3997 229.532 86.9759 229.907 86.5844L231.565 85.0529C231.807 84.9121 233.794 83.69 234.035 83.5493C234.851 83.995 238.34 84.7331 238.901 84.5202C255.39 78.2609 240.552 87.6192 261.024 78.7696C261.228 81.6144 254.556 97.2051 254.394 96.5181L242.603 111.62L238.335 117.489" stroke="#373435" stroke-width="3.5278" stroke-miterlimit="22.9256"/>
<path fill-rule="evenodd" clip-rule="evenodd" d="M273.135 185.579L273.396 187.615L273.514 189.004C272.982 189.961 272.92 189.482 272.771 189.296C272.201 188.59 271.82 188.888 271.905 189.625C271.869 190.424 271.065 191.744 271.569 192.362L271.772 192.613L271.746 193.203C271.67 193.552 271.17 193.969 271.521 194.232C270.916 195.117 271.188 195.755 271.027 196.475C270.915 196.974 270.429 197.703 270.32 198.177C270.232 198.56 270.52 198.693 270.434 199.06C270.373 199.318 270.313 199.572 270.252 199.822C270.145 200.269 269.57 200.863 269.463 201.286C268.436 203.543 267.95 205.388 267.896 206.773C267.651 207.405 267.002 208.071 266.792 208.594C266.559 209.173 266.896 209.685 266.547 210.069C265.472 211.253 264.6 212.048 264.149 212.806C263.65 213.397 263.937 214.479 263.099 214.505C262.356 214.529 261.725 215.105 261.524 215.485C261.195 215.648 261.207 216.008 260.845 216.086C260.423 216.178 259.987 216.22 259.534 216.186C259.271 216.224 258.652 216.047 258.228 216.135C257.779 216.227 257.519 216.584 256.993 216.617C256.358 216.655 255.862 216.053 255.267 215.626C254.918 215.376 254.425 215.477 254.139 214.985C253.972 214.698 254.144 214.456 254.002 214.078L253.434 213.024C253.619 212.315 253.875 211.488 253.792 210.627C254.305 209.042 254.213 208.019 253.951 206.895C253.867 206.536 253.248 205.916 253.299 205.59C253.234 204.341 253.342 204.569 256.055 203.383C257.034 202.955 256.625 201.492 256.962 200.772C257.297 200.057 258.431 200.382 257.581 198.582C257.202 197.779 258.049 196.958 258.293 196.108C258.659 194.908 256.399 191.305 258.022 190.19C258.38 189.944 257.976 189.389 259.22 189.432C259.992 189.458 260.654 188.629 261.542 188.199C262.756 187.61 264.369 188.418 266.046 187.684C266.349 187.551 266.456 185.917 266.775 185.775C266.95 185.697 267.113 185.587 267.286 185.492C267.279 186.169 267.547 185.385 267.722 185.271C267.907 185.151 268.009 185.644 268.207 185.449C268.442 185.218 268.733 185.299 269.105 184.929C269.443 184.591 269.861 183.785 270.133 183.782C270.498 183.778 270.817 184.177 271.196 184.128C271.743 184.058 272.652 182.701 272.317 183.02C271.397 183.897 274.131 181.609 273.135 185.579V185.579Z" stroke="#373435" stroke-width="1.4111" stroke-miterlimit="22.9256"/>
<path fill-rule="evenodd" clip-rule="evenodd" d="M280.958 210.196L280.987 210.422L281 210.577C280.941 210.683 280.934 210.63 280.917 210.609C280.854 210.531 280.812 210.564 280.821 210.646C280.817 210.735 280.728 210.881 280.784 210.95L280.806 210.978L280.803 211.044C280.795 211.082 280.739 211.129 280.779 211.158C280.711 211.257 280.741 211.327 280.724 211.407C280.711 211.463 280.657 211.544 280.645 211.597C280.635 211.639 280.667 211.654 280.658 211.695C280.651 211.724 280.644 211.752 280.637 211.78C280.625 211.829 280.562 211.895 280.55 211.942C280.435 212.193 280.381 212.398 280.375 212.552C280.348 212.623 280.276 212.697 280.253 212.755C280.227 212.819 280.264 212.876 280.225 212.919C280.106 213.051 280.009 213.139 279.959 213.223C279.903 213.289 279.935 213.409 279.842 213.412C279.76 213.415 279.689 213.479 279.667 213.521C279.63 213.539 279.632 213.579 279.591 213.588C279.545 213.598 279.496 213.603 279.446 213.599C279.417 213.603 279.348 213.583 279.301 213.593C279.251 213.604 279.222 213.643 279.163 213.647C279.093 213.651 279.038 213.584 278.971 213.537C278.933 213.509 278.878 213.52 278.846 213.465C278.827 213.433 278.846 213.407 278.831 213.365L278.768 213.247C278.788 213.169 278.817 213.077 278.807 212.981C278.864 212.805 278.854 212.691 278.825 212.566C278.816 212.526 278.747 212.457 278.753 212.421C278.745 212.282 278.757 212.307 279.059 212.175C279.168 212.128 279.122 211.965 279.16 211.885C279.197 211.806 279.323 211.842 279.229 211.642C279.187 211.552 279.281 211.461 279.308 211.367C279.349 211.233 279.097 210.833 279.278 210.709C279.317 210.681 279.273 210.62 279.411 210.624C279.497 210.627 279.57 210.535 279.669 210.487C279.804 210.422 279.983 210.512 280.17 210.43C280.203 210.415 280.215 210.234 280.251 210.218C280.27 210.209 280.288 210.197 280.308 210.186C280.307 210.262 280.337 210.174 280.356 210.162C280.377 210.148 280.388 210.203 280.41 210.182C280.436 210.156 280.469 210.165 280.51 210.124C280.548 210.086 280.594 209.997 280.624 209.996C280.665 209.996 280.7 210.04 280.742 210.035C280.803 210.027 280.904 209.876 280.867 209.912C280.765 210.009 281.069 209.755 280.958 210.196V210.196Z" stroke="#373435" stroke-width="1.0583" stroke-miterlimit="22.9256"/>
<path fill-rule="evenodd" clip-rule="evenodd" d="M264.236 177.433L264.277 177.758L264.296 177.98C264.211 178.133 264.201 178.057 264.177 178.027C264.086 177.914 264.026 177.962 264.039 178.079C264.033 178.207 263.905 178.418 263.985 178.517L264.018 178.557L264.014 178.651C264.002 178.707 263.922 178.773 263.978 178.815C263.881 178.957 263.925 179.059 263.899 179.174C263.881 179.253 263.803 179.37 263.786 179.445C263.772 179.507 263.818 179.528 263.804 179.587C263.794 179.628 263.785 179.668 263.775 179.708C263.758 179.779 263.666 179.874 263.649 179.942C263.485 180.303 263.407 180.597 263.399 180.819C263.36 180.919 263.256 181.026 263.222 181.109C263.185 181.202 263.239 181.284 263.183 181.345C263.012 181.534 262.872 181.661 262.8 181.782C262.721 181.876 262.766 182.049 262.632 182.053C262.514 182.057 262.413 182.149 262.381 182.21C262.328 182.236 262.33 182.293 262.273 182.306C262.205 182.321 262.136 182.327 262.063 182.322C262.021 182.328 261.922 182.3 261.855 182.314C261.783 182.329 261.741 182.386 261.657 182.391C261.556 182.397 261.477 182.301 261.381 182.233C261.326 182.193 261.247 182.209 261.201 182.13C261.175 182.084 261.202 182.046 261.179 181.985L261.089 181.817C261.118 181.704 261.159 181.572 261.146 181.434C261.228 181.181 261.213 181.018 261.171 180.838C261.158 180.781 261.059 180.682 261.067 180.63C261.057 180.43 261.074 180.466 261.507 180.277C261.664 180.209 261.599 179.975 261.652 179.86C261.706 179.746 261.887 179.798 261.751 179.51C261.691 179.382 261.826 179.251 261.865 179.115C261.923 178.923 261.562 178.348 261.822 178.17C261.879 178.13 261.814 178.042 262.013 178.049C262.136 178.053 262.242 177.92 262.384 177.852C262.578 177.758 262.835 177.887 263.103 177.769C263.152 177.748 263.169 177.487 263.22 177.465C263.248 177.452 263.274 177.435 263.301 177.419C263.3 177.527 263.343 177.402 263.371 177.384C263.4 177.365 263.417 177.444 263.449 177.412C263.486 177.376 263.533 177.389 263.592 177.329C263.646 177.275 263.713 177.147 263.756 177.146C263.814 177.146 263.865 177.209 263.926 177.201C264.013 177.19 264.158 176.974 264.105 177.024C263.958 177.165 264.395 176.799 264.236 177.433V177.433Z" stroke="#373435" stroke-width="1.0583" stroke-miterlimit="22.9256"/>
<path d="M211.739 120.336C235.244 120.336 254.298 117.49 254.298 113.98C254.298 110.47 235.244 107.624 211.739 107.624C188.234 107.624 169.179 110.47 169.179 113.98C169.179 117.49 188.234 120.336 211.739 120.336Z" fill="#FFCC29"/>
<path d="M211.479 149.852C234.984 149.852 254.038 147.006 254.038 143.496C254.038 139.986 234.984 137.14 211.479 137.14C187.974 137.14 168.919 139.986 168.919 143.496C168.919 147.006 187.974 149.852 211.479 149.852Z" fill="#FFCC29"/>
<path d="M211.748 134.611C235.253 134.611 254.308 131.765 254.308 128.255C254.308 124.745 235.253 121.9 211.748 121.9C188.243 121.9 169.189 124.745 169.189 128.255C169.189 131.765 188.243 134.611 211.748 134.611Z" fill="#FFCC29"/>
<path d="M211.687 165.014C235.192 165.014 254.246 162.169 254.246 158.658C254.246 155.148 235.192 152.303 211.687 152.303C188.182 152.303 169.127 155.148 169.127 158.658C169.127 162.169 188.182 165.014 211.687 165.014Z" fill="#FFCC29"/>
<path d="M211.868 193.782C235.373 193.782 254.427 190.936 254.427 187.426C254.427 183.916 235.373 181.07 211.868 181.07C188.363 181.07 169.308 183.916 169.308 187.426C169.308 190.936 188.363 193.782 211.868 193.782Z" fill="#FFCC29"/>
<path d="M211.696 179.289C235.201 179.289 254.255 176.444 254.255 172.934C254.255 169.423 235.201 166.578 211.696 166.578C188.191 166.578 169.136 169.423 169.136 172.934C169.136 176.444 188.191 179.289 211.696 179.289Z" fill="#FFCC29"/>
<path d="M211.856 207.975C235.36 207.975 254.415 205.13 254.415 201.62C254.415 198.109 235.36 195.264 211.856 195.264C188.351 195.264 169.296 198.109 169.296 201.62C169.296 205.13 188.351 207.975 211.856 207.975Z" fill="#FFCC29"/>
</svg>
