<svg width="627" height="235" viewBox="0 0 627 235" fill="none" xmlns="http://www.w3.org/2000/svg">
<rect width="300" height="235" fill="white"/>
<rect x="300" width="327" height="235" fill="white"/>
<path d="M342.576 83.3008V100H336.951V57.3438H352.684C357.352 57.3438 361.004 58.5352 363.641 60.918C366.297 63.3008 367.625 66.4551 367.625 70.3809C367.625 74.5215 366.326 77.7148 363.729 79.9609C361.15 82.1875 357.449 83.3008 352.625 83.3008H342.576ZM342.576 78.7012H352.684C355.691 78.7012 357.996 77.998 359.598 76.5918C361.199 75.166 362 73.1152 362 70.4395C362 67.9004 361.199 65.8691 359.598 64.3457C357.996 62.8223 355.799 62.0312 353.006 61.9727H342.576V78.7012ZM389.275 73.1641C388.455 73.0273 387.566 72.959 386.609 72.959C383.055 72.959 380.643 74.4727 379.373 77.5V100H373.953V68.3008H379.227L379.314 71.9629C381.092 69.1309 383.611 67.7148 386.873 67.7148C387.928 67.7148 388.729 67.8516 389.275 68.125V73.1641ZM406.854 100.586C402.557 100.586 399.061 99.1797 396.365 96.3672C393.67 93.5352 392.322 89.7559 392.322 85.0293V84.0332C392.322 80.8887 392.918 78.0859 394.109 75.625C395.32 73.1445 397 71.2109 399.148 69.8242C401.316 68.418 403.66 67.7148 406.18 67.7148C410.301 67.7148 413.504 69.0723 415.789 71.7871C418.074 74.502 419.217 78.3887 419.217 83.4473V85.7031H397.742C397.82 88.8281 398.729 91.3574 400.467 93.291C402.225 95.2051 404.451 96.1621 407.146 96.1621C409.061 96.1621 410.682 95.7715 412.01 94.9902C413.338 94.209 414.5 93.1738 415.496 91.8848L418.807 94.4629C416.15 98.5449 412.166 100.586 406.854 100.586ZM406.18 72.168C403.992 72.168 402.156 72.9688 400.672 74.5703C399.188 76.1523 398.27 78.3789 397.918 81.25H413.797V80.8398C413.641 78.0859 412.898 75.957 411.57 74.4531C410.242 72.9297 408.445 72.168 406.18 72.168ZM443.973 91.5918C443.973 90.127 443.416 88.9941 442.303 88.1934C441.209 87.373 439.285 86.6699 436.531 86.084C433.797 85.498 431.619 84.7949 429.998 83.9746C428.396 83.1543 427.205 82.1777 426.424 81.0449C425.662 79.9121 425.281 78.5645 425.281 77.002C425.281 74.4043 426.375 72.207 428.562 70.4102C430.77 68.6133 433.582 67.7148 437 67.7148C440.594 67.7148 443.504 68.6426 445.73 70.498C447.977 72.3535 449.1 74.7266 449.1 77.6172H443.65C443.65 76.1328 443.016 74.8535 441.746 73.7793C440.496 72.7051 438.914 72.168 437 72.168C435.027 72.168 433.484 72.5977 432.371 73.457C431.258 74.3164 430.701 75.4395 430.701 76.8262C430.701 78.1348 431.219 79.1211 432.254 79.7852C433.289 80.4492 435.154 81.084 437.85 81.6895C440.564 82.2949 442.762 83.0176 444.441 83.8574C446.121 84.6973 447.361 85.7129 448.162 86.9043C448.982 88.0762 449.393 89.5117 449.393 91.2109C449.393 94.043 448.26 96.3184 445.994 98.0371C443.729 99.7363 440.789 100.586 437.176 100.586C434.637 100.586 432.391 100.137 430.438 99.2383C428.484 98.3398 426.951 97.0898 425.838 95.4883C424.744 93.8672 424.197 92.1191 424.197 90.2441H429.617C429.715 92.0605 430.438 93.5059 431.785 94.5801C433.152 95.6348 434.949 96.1621 437.176 96.1621C439.227 96.1621 440.867 95.752 442.098 94.9316C443.348 94.0918 443.973 92.9785 443.973 91.5918ZM474.91 91.5918C474.91 90.127 474.354 88.9941 473.24 88.1934C472.146 87.373 470.223 86.6699 467.469 86.084C464.734 85.498 462.557 84.7949 460.936 83.9746C459.334 83.1543 458.143 82.1777 457.361 81.0449C456.6 79.9121 456.219 78.5645 456.219 77.002C456.219 74.4043 457.312 72.207 459.5 70.4102C461.707 68.6133 464.52 67.7148 467.938 67.7148C471.531 67.7148 474.441 68.6426 476.668 70.498C478.914 72.3535 480.037 74.7266 480.037 77.6172H474.588C474.588 76.1328 473.953 74.8535 472.684 73.7793C471.434 72.7051 469.852 72.168 467.938 72.168C465.965 72.168 464.422 72.5977 463.309 73.457C462.195 74.3164 461.639 75.4395 461.639 76.8262C461.639 78.1348 462.156 79.1211 463.191 79.7852C464.227 80.4492 466.092 81.084 468.787 81.6895C471.502 82.2949 473.699 83.0176 475.379 83.8574C477.059 84.6973 478.299 85.7129 479.1 86.9043C479.92 88.0762 480.33 89.5117 480.33 91.2109C480.33 94.043 479.197 96.3184 476.932 98.0371C474.666 99.7363 471.727 100.586 468.113 100.586C465.574 100.586 463.328 100.137 461.375 99.2383C459.422 98.3398 457.889 97.0898 456.775 95.4883C455.682 93.8672 455.135 92.1191 455.135 90.2441H460.555C460.652 92.0605 461.375 93.5059 462.723 94.5801C464.09 95.6348 465.887 96.1621 468.113 96.1621C470.164 96.1621 471.805 95.752 473.035 94.9316C474.285 94.0918 474.91 92.9785 474.91 91.5918Z" fill="#FFCC29"/>
<path d="M352.596 152.744H342.576V170H336.922V127.344H351.043C355.848 127.344 359.539 128.438 362.117 130.625C364.715 132.812 366.014 135.996 366.014 140.176C366.014 142.832 365.291 145.146 363.846 147.119C362.42 149.092 360.428 150.566 357.869 151.543L367.889 169.648V170H361.854L352.596 152.744ZM342.576 148.145H351.219C354.012 148.145 356.229 147.422 357.869 145.977C359.529 144.531 360.359 142.598 360.359 140.176C360.359 137.539 359.568 135.518 357.986 134.111C356.424 132.705 354.158 131.992 351.189 131.973H342.576V148.145ZM386.229 170.586C381.932 170.586 378.436 169.18 375.74 166.367C373.045 163.535 371.697 159.756 371.697 155.029V154.033C371.697 150.889 372.293 148.086 373.484 145.625C374.695 143.145 376.375 141.211 378.523 139.824C380.691 138.418 383.035 137.715 385.555 137.715C389.676 137.715 392.879 139.072 395.164 141.787C397.449 144.502 398.592 148.389 398.592 153.447V155.703H377.117C377.195 158.828 378.104 161.357 379.842 163.291C381.6 165.205 383.826 166.162 386.521 166.162C388.436 166.162 390.057 165.771 391.385 164.99C392.713 164.209 393.875 163.174 394.871 161.885L398.182 164.463C395.525 168.545 391.541 170.586 386.229 170.586ZM385.555 142.168C383.367 142.168 381.531 142.969 380.047 144.57C378.562 146.152 377.645 148.379 377.293 151.25H393.172V150.84C393.016 148.086 392.273 145.957 390.945 144.453C389.617 142.93 387.82 142.168 385.555 142.168ZM410.779 170H405.359V125H410.779V170ZM432.635 170.586C428.338 170.586 424.842 169.18 422.146 166.367C419.451 163.535 418.104 159.756 418.104 155.029V154.033C418.104 150.889 418.699 148.086 419.891 145.625C421.102 143.145 422.781 141.211 424.93 139.824C427.098 138.418 429.441 137.715 431.961 137.715C436.082 137.715 439.285 139.072 441.57 141.787C443.855 144.502 444.998 148.389 444.998 153.447V155.703H423.523C423.602 158.828 424.51 161.357 426.248 163.291C428.006 165.205 430.232 166.162 432.928 166.162C434.842 166.162 436.463 165.771 437.791 164.99C439.119 164.209 440.281 163.174 441.277 161.885L444.588 164.463C441.932 168.545 437.947 170.586 432.635 170.586ZM431.961 142.168C429.773 142.168 427.938 142.969 426.453 144.57C424.969 146.152 424.051 148.379 423.699 151.25H439.578V150.84C439.422 148.086 438.68 145.957 437.352 144.453C436.023 142.93 434.227 142.168 431.961 142.168ZM470.867 170C470.555 169.375 470.301 168.262 470.105 166.66C467.586 169.277 464.578 170.586 461.082 170.586C457.957 170.586 455.389 169.707 453.377 167.949C451.385 166.172 450.389 163.926 450.389 161.211C450.389 157.91 451.639 155.352 454.139 153.535C456.658 151.699 460.193 150.781 464.744 150.781H470.018V148.291C470.018 146.396 469.451 144.893 468.318 143.779C467.186 142.646 465.516 142.08 463.309 142.08C461.375 142.08 459.754 142.568 458.445 143.545C457.137 144.521 456.482 145.703 456.482 147.09H451.033C451.033 145.508 451.59 143.984 452.703 142.52C453.836 141.035 455.359 139.863 457.273 139.004C459.207 138.145 461.326 137.715 463.631 137.715C467.283 137.715 470.145 138.633 472.215 140.469C474.285 142.285 475.359 144.795 475.438 147.998V162.588C475.438 165.498 475.809 167.812 476.551 169.531V170H470.867ZM461.873 165.869C463.572 165.869 465.184 165.43 466.707 164.551C468.23 163.672 469.334 162.529 470.018 161.123V154.619H465.77C459.129 154.619 455.809 156.562 455.809 160.449C455.809 162.148 456.375 163.477 457.508 164.434C458.641 165.391 460.096 165.869 461.873 165.869ZM502.391 161.592C502.391 160.127 501.834 158.994 500.721 158.193C499.627 157.373 497.703 156.67 494.949 156.084C492.215 155.498 490.037 154.795 488.416 153.975C486.814 153.154 485.623 152.178 484.842 151.045C484.08 149.912 483.699 148.564 483.699 147.002C483.699 144.404 484.793 142.207 486.98 140.41C489.188 138.613 492 137.715 495.418 137.715C499.012 137.715 501.922 138.643 504.148 140.498C506.395 142.354 507.518 144.727 507.518 147.617H502.068C502.068 146.133 501.434 144.854 500.164 143.779C498.914 142.705 497.332 142.168 495.418 142.168C493.445 142.168 491.902 142.598 490.789 143.457C489.676 144.316 489.119 145.439 489.119 146.826C489.119 148.135 489.637 149.121 490.672 149.785C491.707 150.449 493.572 151.084 496.268 151.689C498.982 152.295 501.18 153.018 502.859 153.857C504.539 154.697 505.779 155.713 506.58 156.904C507.4 158.076 507.811 159.512 507.811 161.211C507.811 164.043 506.678 166.318 504.412 168.037C502.146 169.736 499.207 170.586 495.594 170.586C493.055 170.586 490.809 170.137 488.855 169.238C486.902 168.34 485.369 167.09 484.256 165.488C483.162 163.867 482.615 162.119 482.615 160.244H488.035C488.133 162.061 488.855 163.506 490.203 164.58C491.57 165.635 493.367 166.162 495.594 166.162C497.645 166.162 499.285 165.752 500.516 164.932C501.766 164.092 502.391 162.979 502.391 161.592ZM528.025 170.586C523.729 170.586 520.232 169.18 517.537 166.367C514.842 163.535 513.494 159.756 513.494 155.029V154.033C513.494 150.889 514.09 148.086 515.281 145.625C516.492 143.145 518.172 141.211 520.32 139.824C522.488 138.418 524.832 137.715 527.352 137.715C531.473 137.715 534.676 139.072 536.961 141.787C539.246 144.502 540.389 148.389 540.389 153.447V155.703H518.914C518.992 158.828 519.9 161.357 521.639 163.291C523.396 165.205 525.623 166.162 528.318 166.162C530.232 166.162 531.854 165.771 533.182 164.99C534.51 164.209 535.672 163.174 536.668 161.885L539.979 164.463C537.322 168.545 533.338 170.586 528.025 170.586ZM527.352 142.168C525.164 142.168 523.328 142.969 521.844 144.57C520.359 146.152 519.441 148.379 519.09 151.25H534.969V150.84C534.812 148.086 534.07 145.957 532.742 144.453C531.414 142.93 529.617 142.168 527.352 142.168Z" fill="black"/>
<path d="M216.125 198.145C213.607 199.212 212.673 198.03 210.741 200.522C209.241 202.76 205.906 215.065 200.267 216.206L182.433 225L170.802 222.587C169.314 221.988 170.802 222.587 166.336 220.791L164.88 216.243C164.604 212.109 173.654 213.749 164.064 200.142C158.884 197.039 153.704 186.523 150.464 178.066C149.624 172.322 155.228 155.444 153.681 157.244L151.727 152.894L143.701 148.235L139.804 142.944C139.417 141.455 140.832 137.167 140.445 135.678L142.846 133.953C136.978 131.011 139.628 128.29 143.339 125.983L138.883 121.599C136.987 120.476 135.425 121.733 133.251 120.276C131.235 118.925 129.942 119.395 128.69 118.186L127.882 116.896C127.678 120.16 125.429 119.68 123.983 119.831C121.179 120.125 118.175 118.251 116.418 118.802L109.465 118.393C107.081 118.253 106.248 123.673 103.864 123.532C102.148 127.456 97.5917 126.524 96.0063 126.245C92.9144 125.702 93.7338 129.076 91.0113 128.137C88.7269 125.453 77.7861 128.836 74.615 125.29C72.4739 122.895 68.3947 121.372 66.5392 118.722C63.7238 114.701 51.8772 95.8483 51.5016 91.5418C51.3167 89.4216 51.148 89.497 51.0022 86.1514C50.8888 83.5512 55.2709 80.3821 52.5407 81.0996C50.3554 81.674 59.3867 76.2867 57.6763 68.8839C57.2441 67.0133 52.2326 66.7891 57.2193 64.4079C56.752 62.9992 58.0647 55.2825 58.7876 56.3674C59.4459 57.3556 59.9242 54.5921 63.3894 51.9791C65.5016 50.3863 60.7556 50.2694 63.2351 49.153C65.2432 48.2489 67.6384 44.4526 69.1938 42.298C70.9868 39.8138 73.6673 36.3934 75.7945 35.7843C77.3538 35.0882 78.9623 34.0682 80.611 34.338C83.7388 34.8497 86.9614 36.8389 90.0685 32.8796C91.3905 32.5834 92.723 32.237 93.9874 31.6724L96.5306 32.3427L103.526 30.6938C105.641 30.1951 107.164 28.5435 109.279 28.0447L114.696 27.2466L122.804 27C124.02 27.1691 124.355 30.2034 125.571 30.3728L130.719 30.2294C131.018 30.2645 135.683 30.6082 133.168 31.2611C134.151 31.4354 135.188 31.0817 136.194 30.8153C136.858 30.6397 138.879 28.7803 139.479 28.93C139.675 28.9789 138.708 30.693 139.167 30.7577C139.98 30.8721 139.785 30.8919 140.331 30.9015L139.532 34.8709C139.995 35.3816 136.98 37.401 142.197 37.8089L142.853 38.8845C143.137 39.5505 145.75 39.4955 146.034 40.1616C147.248 40.4372 142.664 43.0443 148.907 43.0892C155.149 43.1342 154.386 46.4661 155.947 46.6843C160.513 47.3232 162.969 48.318 165.087 48.8117C167.206 49.3054 169.316 49.2678 169.805 46.7022C169.42 46.0703 169.372 45.1162 168.987 44.4845L167.227 44.036L167.725 39.8047C168.444 38.8608 170.435 39.1649 171.834 39.2502L176.194 41.9477C177.046 42.1285 178.076 40.6443 178.928 40.8253L181.837 41.4504C186.652 44.6056 191.079 43.4368 195.7 44.4299L197.835 44.196C199.091 45.6265 199.603 49.2702 199.824 49.8764L198.349 51.9233C197.892 52.0001 197.546 49.8476 197.089 49.9245C195.817 50.7553 193.482 47.5545 192.015 47.15L196.013 50.9628C196.775 51.5552 197.149 53.8466 197.911 54.4394L199.683 57.72L202.165 59.0718C202.853 59.6717 202.62 61.4562 203.309 62.0561L206.587 64.9234C207.258 65.7149 208.012 66.2438 208.358 67.7895C208.717 69.3955 209.348 70.3072 210.61 70.434C211.235 70.4968 210.777 71.4094 211.429 71.9713C212.375 72.7871 213.949 73.4338 214.129 74.4257C214.75 77.8279 216.804 77.1509 217.52 78.24C219.419 81.1296 220.224 82.2411 222.291 83.9661C222.619 84.2401 224.513 84.073 224.662 84.512C224.754 84.7812 224.561 85.2267 224.703 85.4633C224.842 85.695 223.774 86.6334 223.903 86.8731L225.224 89.3215C225.355 89.565 225.706 88.2928 225.806 87.5713L227.18 88.2936L228.278 87.7915C228.653 87.3997 229.532 86.9759 229.907 86.5844L231.565 85.0529C231.807 84.9121 233.794 83.69 234.035 83.5493C234.851 83.995 238.34 84.7331 238.901 84.5202C255.39 78.2609 240.552 87.6192 261.024 78.7696C261.228 81.6144 254.556 97.2051 254.394 96.5181L242.603 111.62L238.335 117.489" stroke="#373435" stroke-width="3.5278" stroke-miterlimit="22.9256"/>
<path fill-rule="evenodd" clip-rule="evenodd" d="M273.135 185.579L273.396 187.615L273.514 189.004C272.982 189.961 272.92 189.482 272.771 189.296C272.201 188.59 271.82 188.888 271.905 189.625C271.869 190.424 271.065 191.744 271.569 192.362L271.772 192.613L271.746 193.203C271.67 193.552 271.17 193.969 271.521 194.232C270.916 195.117 271.188 195.755 271.027 196.475C270.915 196.974 270.429 197.703 270.32 198.177C270.232 198.56 270.52 198.693 270.434 199.06C270.373 199.318 270.313 199.572 270.252 199.822C270.145 200.269 269.57 200.863 269.463 201.286C268.436 203.543 267.95 205.388 267.896 206.773C267.651 207.405 267.002 208.071 266.792 208.594C266.559 209.173 266.896 209.685 266.547 210.069C265.472 211.253 264.6 212.048 264.149 212.806C263.65 213.397 263.937 214.479 263.099 214.505C262.356 214.529 261.725 215.105 261.524 215.485C261.195 215.648 261.207 216.008 260.845 216.086C260.423 216.178 259.987 216.22 259.534 216.186C259.271 216.224 258.652 216.047 258.228 216.135C257.779 216.227 257.519 216.584 256.993 216.617C256.358 216.655 255.862 216.053 255.267 215.626C254.918 215.376 254.425 215.477 254.139 214.985C253.972 214.698 254.144 214.456 254.002 214.078L253.434 213.024C253.619 212.315 253.875 211.488 253.792 210.627C254.305 209.042 254.213 208.019 253.951 206.895C253.867 206.536 253.248 205.916 253.299 205.59C253.234 204.341 253.342 204.569 256.055 203.383C257.034 202.955 256.625 201.492 256.962 200.772C257.297 200.057 258.431 200.382 257.581 198.582C257.202 197.779 258.049 196.958 258.293 196.108C258.659 194.908 256.399 191.305 258.022 190.19C258.38 189.944 257.976 189.389 259.22 189.432C259.992 189.458 260.654 188.629 261.542 188.199C262.756 187.61 264.369 188.418 266.046 187.684C266.349 187.551 266.456 185.917 266.775 185.775C266.95 185.697 267.113 185.587 267.286 185.492C267.279 186.169 267.547 185.385 267.722 185.271C267.907 185.151 268.009 185.644 268.207 185.449C268.442 185.218 268.733 185.299 269.105 184.929C269.443 184.591 269.861 183.785 270.133 183.782C270.498 183.778 270.817 184.177 271.196 184.128C271.743 184.058 272.652 182.701 272.317 183.02C271.397 183.897 274.131 181.609 273.135 185.579V185.579Z" stroke="#373435" stroke-width="1.4111" stroke-miterlimit="22.9256"/>
<path fill-rule="evenodd" clip-rule="evenodd" d="M280.958 210.196L280.987 210.422L281 210.577C280.941 210.683 280.934 210.63 280.917 210.609C280.854 210.531 280.812 210.564 280.821 210.646C280.817 210.735 280.728 210.881 280.784 210.95L280.806 210.978L280.803 211.044C280.795 211.082 280.739 211.129 280.779 211.158C280.711 211.257 280.741 211.327 280.724 211.407C280.711 211.463 280.657 211.544 280.645 211.597C280.635 211.639 280.667 211.654 280.658 211.695C280.651 211.724 280.644 211.752 280.637 211.78C280.625 211.829 280.562 211.895 280.55 211.942C280.435 212.193 280.381 212.398 280.375 212.552C280.348 212.623 280.276 212.697 280.253 212.755C280.227 212.819 280.264 212.876 280.225 212.919C280.106 213.051 280.009 213.139 279.959 213.223C279.903 213.289 279.935 213.409 279.842 213.412C279.76 213.415 279.689 213.479 279.667 213.521C279.63 213.539 279.632 213.579 279.591 213.588C279.545 213.598 279.496 213.603 279.446 213.599C279.417 213.603 279.348 213.583 279.301 213.593C279.251 213.604 279.222 213.643 279.163 213.647C279.093 213.651 279.038 213.584 278.971 213.537C278.933 213.509 278.878 213.52 278.846 213.465C278.827 213.433 278.846 213.407 278.831 213.365L278.768 213.247C278.788 213.169 278.817 213.077 278.807 212.981C278.864 212.805 278.854 212.691 278.825 212.566C278.816 212.526 278.747 212.457 278.753 212.421C278.745 212.282 278.757 212.307 279.059 212.175C279.168 212.128 279.122 211.965 279.16 211.885C279.197 211.806 279.323 211.842 279.229 211.642C279.187 211.552 279.281 211.461 279.308 211.367C279.349 211.233 279.097 210.833 279.278 210.709C279.317 210.681 279.273 210.62 279.411 210.624C279.497 210.627 279.57 210.535 279.669 210.487C279.804 210.422 279.983 210.512 280.17 210.43C280.203 210.415 280.215 210.234 280.251 210.218C280.27 210.209 280.288 210.197 280.308 210.186C280.307 210.262 280.337 210.174 280.356 210.162C280.377 210.148 280.388 210.203 280.41 210.182C280.436 210.156 280.469 210.165 280.51 210.124C280.548 210.086 280.594 209.997 280.624 209.996C280.665 209.996 280.7 210.04 280.742 210.035C280.803 210.027 280.904 209.876 280.867 209.912C280.765 210.009 281.069 209.755 280.958 210.196V210.196Z" stroke="#373435" stroke-width="1.0583" stroke-miterlimit="22.9256"/>
<path fill-rule="evenodd" clip-rule="evenodd" d="M264.236 177.433L264.277 177.758L264.296 177.98C264.211 178.133 264.201 178.057 264.177 178.027C264.086 177.914 264.026 177.962 264.039 178.079C264.033 178.207 263.905 178.418 263.985 178.517L264.018 178.557L264.014 178.651C264.002 178.707 263.922 178.773 263.978 178.815C263.881 178.957 263.925 179.059 263.899 179.174C263.881 179.253 263.803 179.37 263.786 179.445C263.772 179.507 263.818 179.528 263.804 179.587C263.794 179.628 263.785 179.668 263.775 179.708C263.758 179.779 263.666 179.874 263.649 179.942C263.485 180.303 263.407 180.597 263.399 180.819C263.36 180.919 263.256 181.026 263.222 181.109C263.185 181.202 263.239 181.284 263.183 181.345C263.012 181.534 262.872 181.661 262.8 181.782C262.721 181.876 262.766 182.049 262.632 182.053C262.514 182.057 262.413 182.149 262.381 182.21C262.328 182.236 262.33 182.293 262.273 182.306C262.205 182.321 262.136 182.327 262.063 182.322C262.021 182.328 261.922 182.3 261.855 182.314C261.783 182.329 261.741 182.386 261.657 182.391C261.556 182.397 261.477 182.301 261.381 182.233C261.326 182.193 261.247 182.209 261.201 182.13C261.175 182.084 261.202 182.046 261.179 181.985L261.089 181.817C261.118 181.704 261.159 181.572 261.146 181.434C261.228 181.181 261.213 181.018 261.171 180.838C261.158 180.781 261.059 180.682 261.067 180.63C261.057 180.43 261.074 180.466 261.507 180.277C261.664 180.209 261.599 179.975 261.652 179.86C261.706 179.746 261.887 179.798 261.751 179.51C261.691 179.382 261.826 179.251 261.865 179.115C261.923 178.923 261.562 178.348 261.822 178.17C261.879 178.13 261.814 178.042 262.013 178.049C262.136 178.053 262.242 177.92 262.384 177.852C262.578 177.758 262.835 177.887 263.103 177.769C263.152 177.748 263.169 177.487 263.22 177.465C263.248 177.452 263.274 177.435 263.301 177.419C263.3 177.527 263.343 177.402 263.371 177.384C263.4 177.365 263.417 177.444 263.449 177.412C263.486 177.376 263.533 177.389 263.592 177.329C263.646 177.275 263.713 177.147 263.756 177.146C263.814 177.146 263.865 177.209 263.926 177.201C264.013 177.19 264.158 176.974 264.105 177.024C263.958 177.165 264.395 176.799 264.236 177.433V177.433Z" stroke="#373435" stroke-width="1.0583" stroke-miterlimit="22.9256"/>
<path d="M211.739 120.336C235.244 120.336 254.298 117.49 254.298 113.98C254.298 110.47 235.244 107.624 211.739 107.624C188.234 107.624 169.179 110.47 169.179 113.98C169.179 117.49 188.234 120.336 211.739 120.336Z" fill="#FFCC29"/>
<path d="M211.479 149.852C234.984 149.852 254.038 147.006 254.038 143.496C254.038 139.986 234.984 137.14 211.479 137.14C187.974 137.14 168.919 139.986 168.919 143.496C168.919 147.006 187.974 149.852 211.479 149.852Z" fill="#FFCC29"/>
<path d="M211.748 134.611C235.253 134.611 254.308 131.765 254.308 128.255C254.308 124.745 235.253 121.9 211.748 121.9C188.243 121.9 169.189 124.745 169.189 128.255C169.189 131.765 188.243 134.611 211.748 134.611Z" fill="#FFCC29"/>
<path d="M211.687 165.014C235.192 165.014 254.246 162.169 254.246 158.658C254.246 155.148 235.192 152.303 211.687 152.303C188.182 152.303 169.127 155.148 169.127 158.658C169.127 162.169 188.182 165.014 211.687 165.014Z" fill="#FFCC29"/>
<path d="M211.868 193.782C235.373 193.782 254.427 190.936 254.427 187.426C254.427 183.916 235.373 181.07 211.868 181.07C188.363 181.07 169.308 183.916 169.308 187.426C169.308 190.936 188.363 193.782 211.868 193.782Z" fill="#FFCC29"/>
<path d="M211.696 179.289C235.201 179.289 254.255 176.444 254.255 172.934C254.255 169.423 235.201 166.578 211.696 166.578C188.191 166.578 169.136 169.423 169.136 172.934C169.136 176.444 188.191 179.289 211.696 179.289Z" fill="#FFCC29"/>
<path d="M211.856 207.975C235.36 207.975 254.415 205.13 254.415 201.62C254.415 198.109 235.36 195.264 211.856 195.264C188.351 195.264 169.296 198.109 169.296 201.62C169.296 205.13 188.351 207.975 211.856 207.975Z" fill="#FFCC29"/>
</svg>
